M48
; DRILL file {KiCad (6.0.5)} date Mon Jul  4 16:20:22 2022
; FORMAT={-:-/ absolute / inch / decimal}
; #@! TF.CreationDate,2022-07-04T16:20:22+08:00
; #@! TF.GenerationSoftware,Kicad,Pcbnew,(6.0.5)
; #@! TF.FileFunction,NonPlated,1,2,NPTH
FMAT,2
INCH
; #@! TA.AperFunction,NonPlated,NPTH,ComponentDrill
T1C0.0256
; #@! TA.AperFunction,NonPlated,NPTH,ComponentDrill
T2C0.0689
; #@! TA.AperFunction,NonPlated,NPTH,ComponentDrill
T3C0.1200
; #@! TA.AperFunction,NonPlated,NPTH,ComponentDrill
T4C0.1570
%
G90
G05
T1
X10.4605Y-1.7968
X10.688Y-1.7968
T2
X-0.6006Y-2.1506
X-0.6006Y-3.0871
X-0.5078Y-4.5871
X-0.5078Y-5.3371
X-0.5078Y-6.0871
X-0.4141Y-3.8371
X-0.4141Y-6.0871
X-0.3203Y-4.5871
X-0.2006Y-2.1506
X-0.2006Y-3.0871
X-0.1328Y-5.3371
X-0.1078Y-4.5871
X-0.1078Y-5.3371
X-0.1078Y-6.0871
X-0.0141Y-3.8371
X-0.0141Y-6.0871
X0.0797Y-4.5871
X0.1484Y-3.0871
X0.2672Y-5.3371
X0.3359Y-5.3371
X0.4297Y-6.0871
X0.5234Y-3.8371
X0.5234Y-6.0871
X0.5484Y-3.0871
X0.7109Y-4.5871
X0.7359Y-5.3371
X0.8297Y-6.0871
X0.8984Y-2.1496
X0.8984Y-3.0871
X0.9234Y-3.8371
X0.9234Y-6.0871
X1.0859Y-5.3371
X1.1109Y-4.5871
X1.2734Y-3.8371
X1.2984Y-2.1496
X1.2984Y-3.0871
X1.3672Y-6.0871
X1.4609Y-4.5871
X1.4609Y-6.0871
X1.4859Y-5.3371
X1.6484Y-2.1496
X1.6484Y-3.0871
X1.6734Y-3.8371
X1.7672Y-6.0871
X1.8359Y-5.3371
X1.8609Y-4.5871
X1.8609Y-6.0871
X2.0234Y-3.8371
X2.0484Y-2.1496
X2.0484Y-3.0871
X2.2109Y-4.5871
X2.2359Y-5.3371
X2.3984Y-2.1496
X2.3984Y-3.0871
X2.4234Y-3.8371
X2.5859Y-5.3371
X2.6109Y-4.5871
X2.7734Y-3.8371
X2.7984Y-2.1496
X2.7984Y-3.0871
X2.9609Y-4.5871
X2.9859Y-5.3371
X3.1484Y-2.1496
X3.1484Y-3.0871
X3.1734Y-3.8371
X3.3359Y-5.3371
X3.3609Y-4.5871
X3.5234Y-3.8371
X3.5484Y-2.1496
X3.5484Y-3.0871
X3.7109Y-4.5871
X3.7359Y-5.3371
X3.8984Y-3.0871
X3.9234Y-3.8371
X4.0859Y-5.3371
X4.1109Y-4.5871
X4.1797Y-6.0871
X4.2734Y-2.1496
X4.2734Y-3.8371
X4.2984Y-3.0871
X4.4609Y-4.5871
X4.4859Y-5.3371
X4.5797Y-6.0871
X4.6484Y-3.0871
X4.6484Y-6.0871
X4.6734Y-2.1496
X4.6734Y-3.8371
X4.8359Y-5.3371
X4.8609Y-4.5871
X5.0234Y-2.1496
X5.0234Y-3.8371
X5.0484Y-3.0871
X5.0484Y-6.0871
X5.2109Y-4.5871
X5.2359Y-5.3371
X5.3984Y-3.0871
X5.4234Y-2.1496
X5.4234Y-3.8371
X5.5859Y-5.3371
X5.6109Y-4.5871
X5.7734Y-2.1496
X5.7734Y-3.8371
X5.7984Y-3.0871
X5.9609Y-4.5871
X5.9859Y-5.3371
X6.1484Y-3.0871
X6.1734Y-2.1496
X6.1734Y-3.8371
X6.3359Y-5.3371
X6.3609Y-4.5871
X6.5232Y-3.837
X6.5234Y-2.1496
X6.5484Y-3.0871
X6.7109Y-4.5871
X6.7359Y-5.3371
X6.8984Y-3.0871
X6.9232Y-3.837
X6.9234Y-2.1496
X6.9922Y-6.0871
X7.0859Y-5.3371
X7.1109Y-4.5871
X7.2734Y-3.837
X7.2984Y-3.0871
X7.3922Y-6.0871
X7.4609Y-4.5871
X7.4859Y-5.3371
X7.6484Y-3.0871
X7.6496Y-2.1496
X7.6734Y-3.837
X7.8359Y-5.3371
X7.8359Y-6.0871
X7.8609Y-4.5871
X7.9297Y-6.0871
X8.0234Y-3.837
X8.0484Y-3.0871
X8.0496Y-2.1496
X8.2109Y-4.5871
X8.2359Y-5.3371
X8.2359Y-6.0871
X8.3297Y-6.0871
X8.3984Y-2.1496
X8.3984Y-3.0871
X8.4234Y-3.837
X8.6109Y-4.5871
X8.7734Y-3.837
X8.7734Y-6.0871
X8.7984Y-2.1496
X8.7984Y-3.0871
X8.8672Y-5.3371
X8.8672Y-6.0871
X8.9609Y-4.5871
X9.1484Y-2.1496
X9.1484Y-3.0871
X9.1734Y-3.837
X9.1734Y-6.0871
X9.2422Y-5.3371
X9.2672Y-5.3371
X9.2672Y-6.0871
X9.3609Y-4.5871
X9.4297Y-4.5871
X9.5234Y-3.0871
X9.5484Y-2.1496
X9.5484Y-3.0871
X9.6172Y-6.0871
X9.6422Y-5.3371
X9.7109Y-3.837
X9.7109Y-6.0871
X9.8047Y-4.2121
X9.8297Y-4.5871
X9.8984Y-2.1496
X9.8984Y-3.0871
X9.8984Y-5.3371
X9.9234Y-3.0871
X10.0172Y-6.0871
X10.1109Y-3.837
X10.1109Y-6.0871
X10.2047Y-4.2121
X10.2984Y-2.1496
X10.2984Y-3.0871
X10.2984Y-5.3371
X10.8359Y-2.1496
X10.8359Y-3.0871
X10.8359Y-3.8371
X10.8359Y-6.0871
X11.2359Y-2.1496
X11.2359Y-3.0871
X11.2359Y-3.8371
X11.2359Y-6.0871
X11.5859Y-2.1496
X11.5859Y-3.0871
X11.5859Y-3.8371
X11.5859Y-5.3371
X11.5859Y-6.0871
X11.9859Y-2.1496
X11.9859Y-3.0871
X11.9859Y-3.8371
X11.9859Y-5.3371
X11.9859Y-6.0871
X12.3359Y-2.1496
X12.3359Y-3.0871
X12.3359Y-3.8371
X12.3359Y-6.0871
X12.7359Y-2.1496
X12.7359Y-3.0871
X12.7359Y-3.8371
X12.7359Y-6.0871
T3
X-0.4016Y-5.0621
X0.5359Y-5.0621
X2.4109Y-6.3621
X2.5984Y-6.3621
X6.3484Y-6.3621
X7.0984Y-6.3621
X8.9734Y-5.0621
X9.1609Y-4.8621
X9.2547Y-2.8121
X9.9109Y-5.0621
X10.0984Y-4.8621
X10.1922Y-2.8121
X10.2797Y-3.7434
X10.2797Y-4.6809
T4
X-0.4016Y-5.6621
X-0.4006Y-2.1506
X-0.4006Y-3.0871
X-0.3078Y-4.5871
X-0.3078Y-5.3371
X-0.3078Y-6.0871
X-0.2141Y-3.8371
X-0.2141Y-6.0871
X-0.1203Y-4.5871
X0.0672Y-5.3371
X0.3484Y-3.0871
X0.5359Y-5.3371
X0.5359Y-5.6621
X0.6297Y-6.0871
X0.7234Y-3.8371
X0.7234Y-6.0871
X0.9109Y-4.5871
X1.0984Y-2.1496
X1.0984Y-3.0871
X1.2859Y-5.3371
X1.4734Y-3.8371
X1.5672Y-6.0871
X1.6609Y-4.5871
X1.6609Y-6.0871
X1.8484Y-2.1496
X1.8484Y-3.0871
X2.0359Y-5.3371
X2.2234Y-3.8371
X2.4109Y-4.5871
X2.4109Y-5.7621
X2.5984Y-2.1496
X2.5984Y-3.0871
X2.5984Y-5.7621
X2.7859Y-5.3371
X2.9734Y-3.8371
X3.1609Y-4.5871
X3.3484Y-2.1496
X3.3484Y-3.0871
X3.5359Y-5.3371
X3.7234Y-3.8371
X3.9109Y-4.5871
X4.0984Y-3.0871
X4.2859Y-5.3371
X4.3797Y-6.0871
X4.4734Y-2.1496
X4.4734Y-3.8371
X4.6609Y-4.5871
X4.8484Y-3.0871
X4.8484Y-6.0871
X5.0359Y-5.3371
X5.2234Y-2.1496
X5.2234Y-3.8371
X5.4109Y-4.5871
X5.5984Y-3.0871
X5.7859Y-5.3371
X5.9734Y-2.1496
X5.9734Y-3.8371
X6.1609Y-4.5871
X6.3484Y-3.0871
X6.3484Y-5.7621
X6.5359Y-5.3371
X6.7232Y-3.837
X6.7234Y-2.1496
X6.9109Y-4.5871
X7.0984Y-3.0871
X7.0984Y-5.7621
X7.1922Y-6.0871
X7.2859Y-5.3371
X7.4734Y-3.837
X7.6609Y-4.5871
X7.8484Y-3.0871
X7.8496Y-2.1496
X8.0359Y-5.3371
X8.0359Y-6.0871
X8.1297Y-6.0871
X8.2234Y-3.837
X8.4109Y-4.5871
X8.5984Y-2.1496
X8.5984Y-3.0871
X8.9734Y-3.837
X8.9734Y-5.6621
X8.9734Y-6.0871
X9.0672Y-5.3371
X9.0672Y-6.0871
X9.1609Y-4.2621
X9.1609Y-4.5871
X9.2547Y-3.4121
X9.3484Y-2.1496
X9.3484Y-3.0871
X9.4422Y-5.3371
X9.6297Y-4.5871
X9.6797Y-3.7434
X9.6797Y-4.6809
X9.7234Y-3.0871
X9.8172Y-6.0871
X9.9109Y-3.837
X9.9109Y-5.6621
X9.9109Y-6.0871
X10.0047Y-4.2121
X10.0984Y-2.1496
X10.0984Y-3.0871
X10.0984Y-4.2621
X10.0984Y-5.3371
X10.1922Y-3.4121
X11.0359Y-2.1496
X11.0359Y-3.0871
X11.0359Y-3.8371
X11.0359Y-6.0871
X11.7859Y-2.1496
X11.7859Y-3.0871
X11.7859Y-3.8371
X11.7859Y-5.3371
X11.7859Y-6.0871
X12.5359Y-2.1496
X12.5359Y-3.0871
X12.5359Y-3.8371
X12.5359Y-6.0871
T0
M30
