%TF.GenerationSoftware,KiCad,Pcbnew,(6.0.5)*%
%TF.CreationDate,2022-07-04T16:20:22+08:00*%
%TF.ProjectId,track-lost,74726163-6b2d-46c6-9f73-742e6b696361,rev?*%
%TF.SameCoordinates,Original*%
%TF.FileFunction,Paste,Bot*%
%TF.FilePolarity,Positive*%
%FSLAX46Y46*%
G04 Gerber Fmt 4.6, Leading zero omitted, Abs format (unit mm)*
G04 Created by KiCad (PCBNEW (6.0.5)) date 2022-07-04 16:20:22*
%MOMM*%
%LPD*%
G01*
G04 APERTURE LIST*
G04 Aperture macros list*
%AMRoundRect*
0 Rectangle with rounded corners*
0 $1 Rounding radius*
0 $2 $3 $4 $5 $6 $7 $8 $9 X,Y pos of 4 corners*
0 Add a 4 corners polygon primitive as box body*
4,1,4,$2,$3,$4,$5,$6,$7,$8,$9,$2,$3,0*
0 Add four circle primitives for the rounded corners*
1,1,$1+$1,$2,$3*
1,1,$1+$1,$4,$5*
1,1,$1+$1,$6,$7*
1,1,$1+$1,$8,$9*
0 Add four rect primitives between the rounded corners*
20,1,$1+$1,$2,$3,$4,$5,0*
20,1,$1+$1,$4,$5,$6,$7,0*
20,1,$1+$1,$6,$7,$8,$9,0*
20,1,$1+$1,$8,$9,$2,$3,0*%
%AMFreePoly0*
4,1,18,-0.410000,0.593000,-0.403758,0.624380,-0.385983,0.650983,-0.359380,0.668758,-0.328000,0.675000,0.328000,0.675000,0.359380,0.668758,0.385983,0.650983,0.403758,0.624380,0.410000,0.593000,0.410000,-0.593000,0.403758,-0.624380,0.385983,-0.650983,0.359380,-0.668758,0.328000,-0.675000,0.000000,-0.675000,-0.410000,-0.265000,-0.410000,0.593000,-0.410000,0.593000,$1*%
G04 Aperture macros list end*
%ADD10RoundRect,0.140000X0.170000X-0.140000X0.170000X0.140000X-0.170000X0.140000X-0.170000X-0.140000X0*%
%ADD11R,1.200000X0.900000*%
%ADD12RoundRect,0.105000X-0.245000X0.245000X-0.245000X-0.245000X0.245000X-0.245000X0.245000X0.245000X0*%
%ADD13RoundRect,0.135000X0.185000X-0.135000X0.185000X0.135000X-0.185000X0.135000X-0.185000X-0.135000X0*%
%ADD14RoundRect,0.140000X-0.140000X-0.170000X0.140000X-0.170000X0.140000X0.170000X-0.140000X0.170000X0*%
%ADD15RoundRect,0.105000X0.245000X-0.245000X0.245000X0.245000X-0.245000X0.245000X-0.245000X-0.245000X0*%
%ADD16RoundRect,0.250000X0.292217X0.292217X-0.292217X0.292217X-0.292217X-0.292217X0.292217X-0.292217X0*%
%ADD17RoundRect,0.050000X0.387500X0.050000X-0.387500X0.050000X-0.387500X-0.050000X0.387500X-0.050000X0*%
%ADD18RoundRect,0.050000X0.050000X0.387500X-0.050000X0.387500X-0.050000X-0.387500X0.050000X-0.387500X0*%
%ADD19RoundRect,0.135000X-0.185000X0.135000X-0.185000X-0.135000X0.185000X-0.135000X0.185000X0.135000X0*%
%ADD20RoundRect,0.105000X0.245000X0.245000X-0.245000X0.245000X-0.245000X-0.245000X0.245000X-0.245000X0*%
%ADD21RoundRect,0.140000X-0.170000X0.140000X-0.170000X-0.140000X0.170000X-0.140000X0.170000X0.140000X0*%
%ADD22RoundRect,0.082000X0.328000X0.593000X-0.328000X0.593000X-0.328000X-0.593000X0.328000X-0.593000X0*%
%ADD23FreePoly0,180.000000*%
%ADD24RoundRect,0.150000X0.650000X0.150000X-0.650000X0.150000X-0.650000X-0.150000X0.650000X-0.150000X0*%
%ADD25RoundRect,0.105000X-0.245000X-0.245000X0.245000X-0.245000X0.245000X0.245000X-0.245000X0.245000X0*%
%ADD26R,1.400000X1.200000*%
%ADD27RoundRect,0.140000X0.140000X0.170000X-0.140000X0.170000X-0.140000X-0.170000X0.140000X-0.170000X0*%
%ADD28RoundRect,0.150000X-0.512500X-0.150000X0.512500X-0.150000X0.512500X0.150000X-0.512500X0.150000X0*%
%ADD29R,1.800000X1.100000*%
%ADD30RoundRect,0.082000X0.593000X-0.328000X0.593000X0.328000X-0.593000X0.328000X-0.593000X-0.328000X0*%
%ADD31FreePoly0,90.000000*%
%ADD32RoundRect,0.147500X-0.172500X0.147500X-0.172500X-0.147500X0.172500X-0.147500X0.172500X0.147500X0*%
%ADD33RoundRect,0.150000X0.475000X0.150000X-0.475000X0.150000X-0.475000X-0.150000X0.475000X-0.150000X0*%
%ADD34RoundRect,0.150000X0.150000X-0.587500X0.150000X0.587500X-0.150000X0.587500X-0.150000X-0.587500X0*%
%ADD35R,0.600000X1.450000*%
%ADD36R,0.300000X1.450000*%
G04 APERTURE END LIST*
D10*
%TO.C,C17*%
X265241200Y-109570000D03*
X265241200Y-108610000D03*
%TD*%
D11*
%TO.C,D75*%
X188235000Y-138172500D03*
X188235000Y-134872500D03*
%TD*%
D12*
%TO.C,LED7*%
X325360000Y-107195000D03*
X326460000Y-107195000D03*
X326460000Y-109025000D03*
X325360000Y-109025000D03*
%TD*%
D13*
%TO.C,R7*%
X269262500Y-123422500D03*
X269262500Y-122402500D03*
%TD*%
D11*
%TO.C,D31*%
X229510000Y-81022500D03*
X229510000Y-77722500D03*
%TD*%
D14*
%TO.C,C31*%
X110930000Y-47980000D03*
X111890000Y-47980000D03*
%TD*%
D12*
%TO.C,LED6*%
X325360000Y-133392500D03*
X326460000Y-133392500D03*
X326460000Y-135222500D03*
X325360000Y-135222500D03*
%TD*%
D15*
%TO.C,LED27*%
X-17045000Y-109025000D03*
X-18145000Y-109025000D03*
X-18145000Y-107195000D03*
X-17045000Y-107195000D03*
%TD*%
D16*
%TO.C,U4*%
X270484250Y-117812500D03*
X271759250Y-116537500D03*
X271759250Y-117812500D03*
X270484250Y-116537500D03*
D17*
X274559250Y-114575000D03*
X274559250Y-114975000D03*
X274559250Y-115375000D03*
X274559250Y-115775000D03*
X274559250Y-116175000D03*
X274559250Y-116575000D03*
X274559250Y-116975000D03*
X274559250Y-117375000D03*
X274559250Y-117775000D03*
X274559250Y-118175000D03*
X274559250Y-118575000D03*
X274559250Y-118975000D03*
X274559250Y-119375000D03*
X274559250Y-119775000D03*
D18*
X273721750Y-120612500D03*
X273321750Y-120612500D03*
X272921750Y-120612500D03*
X272521750Y-120612500D03*
X272121750Y-120612500D03*
X271721750Y-120612500D03*
X271321750Y-120612500D03*
X270921750Y-120612500D03*
X270521750Y-120612500D03*
X270121750Y-120612500D03*
X269721750Y-120612500D03*
X269321750Y-120612500D03*
X268921750Y-120612500D03*
X268521750Y-120612500D03*
D17*
X267684250Y-119775000D03*
X267684250Y-119375000D03*
X267684250Y-118975000D03*
X267684250Y-118575000D03*
X267684250Y-118175000D03*
X267684250Y-117775000D03*
X267684250Y-117375000D03*
X267684250Y-116975000D03*
X267684250Y-116575000D03*
X267684250Y-116175000D03*
X267684250Y-115775000D03*
X267684250Y-115375000D03*
X267684250Y-114975000D03*
X267684250Y-114575000D03*
D18*
X268521750Y-113737500D03*
X268921750Y-113737500D03*
X269321750Y-113737500D03*
X269721750Y-113737500D03*
X270121750Y-113737500D03*
X270521750Y-113737500D03*
X270921750Y-113737500D03*
X271321750Y-113737500D03*
X271721750Y-113737500D03*
X272121750Y-113737500D03*
X272521750Y-113737500D03*
X272921750Y-113737500D03*
X273321750Y-113737500D03*
X273721750Y-113737500D03*
%TD*%
D11*
%TO.C,D61*%
X178710000Y-119060000D03*
X178710000Y-115760000D03*
%TD*%
%TO.C,D27*%
X164422500Y-81022500D03*
X164422500Y-77722500D03*
%TD*%
D19*
%TO.C,R1*%
X265824000Y-49322000D03*
X265824000Y-50342000D03*
%TD*%
D11*
%TO.C,D17*%
X259672500Y-81022500D03*
X259672500Y-77722500D03*
%TD*%
%TO.C,D14*%
X283485000Y-57210000D03*
X283485000Y-53910000D03*
%TD*%
%TO.C,D79*%
X302535000Y-138172500D03*
X302535000Y-134872500D03*
%TD*%
%TO.C,D25*%
X126322500Y-81022500D03*
X126322500Y-77722500D03*
%TD*%
%TO.C,D62*%
X197760000Y-119060000D03*
X197760000Y-115760000D03*
%TD*%
D20*
%TO.C,LED23*%
X102078214Y-162145000D03*
X102078214Y-163245000D03*
X100248214Y-163245000D03*
X100248214Y-162145000D03*
%TD*%
D14*
%TO.C,C22*%
X309462500Y-122382500D03*
X310422500Y-122382500D03*
%TD*%
D21*
%TO.C,C24*%
X324210000Y-108062500D03*
X324210000Y-109022500D03*
%TD*%
D22*
%TO.C,LED2*%
X292382500Y-119765000D03*
X293882500Y-119765000D03*
X292382500Y-114315000D03*
D23*
X293882500Y-114315000D03*
%TD*%
D11*
%TO.C,D4*%
X69172500Y-57210000D03*
X69172500Y-53910000D03*
%TD*%
D24*
%TO.C,U3*%
X284329129Y-106415000D03*
X284329129Y-107685000D03*
X284329129Y-108955000D03*
X284329129Y-110225000D03*
X277129129Y-110225000D03*
X277129129Y-108955000D03*
X277129129Y-107685000D03*
X277129129Y-106415000D03*
%TD*%
D25*
%TO.C,LED16*%
X25955000Y-46870000D03*
X25955000Y-45770000D03*
X27785000Y-45770000D03*
X27785000Y-46870000D03*
%TD*%
D20*
%TO.C,LED31*%
X243199642Y-162145000D03*
X243199642Y-163245000D03*
X241369642Y-163245000D03*
X241369642Y-162145000D03*
%TD*%
D21*
%TO.C,C7*%
X269322500Y-126062500D03*
X269322500Y-127022500D03*
%TD*%
D11*
%TO.C,D9*%
X173947500Y-57210000D03*
X173947500Y-53910000D03*
%TD*%
D21*
%TO.C,C26*%
X324222500Y-56182500D03*
X324222500Y-57142500D03*
%TD*%
D11*
%TO.C,D59*%
X140610000Y-119060000D03*
X140610000Y-115760000D03*
%TD*%
D21*
%TO.C,C13*%
X264235000Y-118422500D03*
X264235000Y-119382500D03*
%TD*%
%TO.C,C35*%
X4102500Y-53342500D03*
X4102500Y-54302500D03*
%TD*%
D11*
%TO.C,D45*%
X192997500Y-100072500D03*
X192997500Y-96772500D03*
%TD*%
D12*
%TO.C,LED13*%
X325360000Y-55302500D03*
X326460000Y-55302500D03*
X326460000Y-57132500D03*
X325360000Y-57132500D03*
%TD*%
D26*
%TO.C,Y1*%
X272228000Y-125001250D03*
X274428000Y-125001250D03*
X274428000Y-126701250D03*
X272228000Y-126701250D03*
%TD*%
D11*
%TO.C,D3*%
X50122500Y-57210000D03*
X50122500Y-53910000D03*
%TD*%
%TO.C,D66*%
X20753750Y-138172500D03*
X20753750Y-134872500D03*
%TD*%
%TO.C,D28*%
X183472500Y-81022500D03*
X183472500Y-77722500D03*
%TD*%
D27*
%TO.C,C10*%
X266212000Y-113841250D03*
X265252000Y-113841250D03*
%TD*%
D11*
%TO.C,D65*%
X4878750Y-138172500D03*
X4878750Y-134872500D03*
%TD*%
D20*
%TO.C,LED32*%
X278480000Y-162140000D03*
X278480000Y-163240000D03*
X276650000Y-163240000D03*
X276650000Y-162140000D03*
%TD*%
D11*
%TO.C,D68*%
X54885000Y-138172500D03*
X54885000Y-134872500D03*
%TD*%
%TO.C,D63*%
X216810000Y-119060000D03*
X216810000Y-115760000D03*
%TD*%
D28*
%TO.C,U5*%
X281322500Y-116212500D03*
X281322500Y-115262500D03*
X281322500Y-114312500D03*
X283597500Y-114312500D03*
X283597500Y-116212500D03*
%TD*%
D14*
%TO.C,C3*%
X263690000Y-59102500D03*
X264650000Y-59102500D03*
%TD*%
D11*
%TO.C,D47*%
X231097500Y-100072500D03*
X231097500Y-96772500D03*
%TD*%
%TO.C,D46*%
X212047500Y-100072500D03*
X212047500Y-96772500D03*
%TD*%
D22*
%TO.C,LED1*%
X286910000Y-119765000D03*
X288410000Y-119765000D03*
X286910000Y-114315000D03*
D23*
X288410000Y-114315000D03*
%TD*%
D11*
%TO.C,D73*%
X150135000Y-138172500D03*
X150135000Y-134872500D03*
%TD*%
%TO.C,D40*%
X97747500Y-100072500D03*
X97747500Y-96772500D03*
%TD*%
D10*
%TO.C,C8*%
X266308000Y-109570000D03*
X266308000Y-108610000D03*
%TD*%
D11*
%TO.C,D88*%
X283485000Y-157222500D03*
X283485000Y-153922500D03*
%TD*%
D27*
%TO.C,C49*%
X278540000Y-161000000D03*
X277580000Y-161000000D03*
%TD*%
D21*
%TO.C,C34*%
X4072500Y-47372500D03*
X4072500Y-48332500D03*
%TD*%
D25*
%TO.C,LED10*%
X204700000Y-46855000D03*
X204700000Y-45755000D03*
X206530000Y-45755000D03*
X206530000Y-46855000D03*
%TD*%
D11*
%TO.C,D33*%
X302535000Y-80960000D03*
X302535000Y-77660000D03*
%TD*%
%TO.C,D60*%
X159660000Y-119060000D03*
X159660000Y-115760000D03*
%TD*%
%TO.C,D53*%
X26310000Y-119122500D03*
X26310000Y-115822500D03*
%TD*%
D27*
%TO.C,C44*%
X102200000Y-161000000D03*
X101240000Y-161000000D03*
%TD*%
D21*
%TO.C,C25*%
X324210000Y-82130000D03*
X324210000Y-83090000D03*
%TD*%
D14*
%TO.C,C1*%
X275872500Y-113582500D03*
X276832500Y-113582500D03*
%TD*%
D20*
%TO.C,LED24*%
X72540000Y-162145000D03*
X72540000Y-163245000D03*
X70710000Y-163245000D03*
X70710000Y-162145000D03*
%TD*%
D11*
%TO.C,D55*%
X64410000Y-119122500D03*
X64410000Y-115822500D03*
%TD*%
D10*
%TO.C,C6*%
X271568000Y-109570000D03*
X271568000Y-108610000D03*
%TD*%
D11*
%TO.C,D90*%
X321585000Y-157222500D03*
X321585000Y-153922500D03*
%TD*%
D27*
%TO.C,C46*%
X172720000Y-161000000D03*
X171760000Y-161000000D03*
%TD*%
D11*
%TO.C,D13*%
X259672500Y-57210000D03*
X259672500Y-53910000D03*
%TD*%
D21*
%TO.C,C23*%
X324132500Y-133382500D03*
X324132500Y-134342500D03*
%TD*%
D27*
%TO.C,C2*%
X264650000Y-53560000D03*
X263690000Y-53560000D03*
%TD*%
D11*
%TO.C,D78*%
X259672500Y-138172500D03*
X259672500Y-134872500D03*
%TD*%
%TO.C,D8*%
X154897500Y-57210000D03*
X154897500Y-53910000D03*
%TD*%
%TO.C,D26*%
X145372500Y-81022500D03*
X145372500Y-77722500D03*
%TD*%
D15*
%TO.C,LED26*%
X-17110000Y-135225000D03*
X-18210000Y-135225000D03*
X-18210000Y-133395000D03*
X-17110000Y-133395000D03*
%TD*%
%TO.C,LED28*%
X-17045000Y-83005000D03*
X-18145000Y-83005000D03*
X-18145000Y-81175000D03*
X-17045000Y-81175000D03*
%TD*%
D11*
%TO.C,D64*%
X224747500Y-119122500D03*
X224747500Y-115822500D03*
%TD*%
%TO.C,D84*%
X185853750Y-157222500D03*
X185853750Y-153922500D03*
%TD*%
D27*
%TO.C,C48*%
X243260000Y-160990000D03*
X242300000Y-160990000D03*
%TD*%
D11*
%TO.C,D35*%
X-2265000Y-100072500D03*
X-2265000Y-96772500D03*
%TD*%
%TO.C,D1*%
X-7027500Y-57210000D03*
X-7027500Y-53910000D03*
%TD*%
D14*
%TO.C,C30*%
X159360000Y-48000000D03*
X160320000Y-48000000D03*
%TD*%
%TO.C,C20*%
X298002500Y-122332500D03*
X298962500Y-122332500D03*
%TD*%
D29*
%TO.C,SW1*%
X308685000Y-105590000D03*
X314885000Y-105590000D03*
X308685000Y-109290000D03*
X314885000Y-109290000D03*
%TD*%
D25*
%TO.C,LED20*%
X-14090000Y-46870000D03*
X-14090000Y-45770000D03*
X-12260000Y-45770000D03*
X-12260000Y-46870000D03*
%TD*%
D30*
%TO.C,LED17*%
X6005000Y-47360000D03*
X6005000Y-48860000D03*
X11455000Y-47360000D03*
D31*
X11455000Y-48860000D03*
%TD*%
D11*
%TO.C,D19*%
X12022500Y-81022500D03*
X12022500Y-77722500D03*
%TD*%
D13*
%TO.C,R6*%
X267960000Y-109607500D03*
X267960000Y-108587500D03*
%TD*%
D11*
%TO.C,D39*%
X78697500Y-100072500D03*
X78697500Y-96772500D03*
%TD*%
D22*
%TO.C,LED4*%
X303780000Y-119765000D03*
X305280000Y-119765000D03*
X303780000Y-114315000D03*
D23*
X305280000Y-114315000D03*
%TD*%
D11*
%TO.C,D52*%
X116250Y-119122500D03*
X116250Y-115822500D03*
%TD*%
D14*
%TO.C,C27*%
X297415000Y-47990000D03*
X298375000Y-47990000D03*
%TD*%
D11*
%TO.C,D7*%
X135847500Y-57210000D03*
X135847500Y-53910000D03*
%TD*%
D14*
%TO.C,C19*%
X292402500Y-122352500D03*
X293362500Y-122352500D03*
%TD*%
D11*
%TO.C,D80*%
X2497500Y-157222500D03*
X2497500Y-153922500D03*
%TD*%
D19*
%TO.C,R4*%
X288339129Y-108570000D03*
X288339129Y-109590000D03*
%TD*%
D11*
%TO.C,D72*%
X131062500Y-138192500D03*
X131062500Y-134892500D03*
%TD*%
%TO.C,D83*%
X126322500Y-157222500D03*
X126322500Y-153922500D03*
%TD*%
D20*
%TO.C,LED29*%
X172638928Y-162145000D03*
X172638928Y-163245000D03*
X170808928Y-163245000D03*
X170808928Y-162145000D03*
%TD*%
D11*
%TO.C,D57*%
X102510000Y-119060000D03*
X102510000Y-115760000D03*
%TD*%
%TO.C,D10*%
X202522500Y-57210000D03*
X202522500Y-53910000D03*
%TD*%
%TO.C,D22*%
X69172500Y-81022500D03*
X69172500Y-77722500D03*
%TD*%
%TO.C,D70*%
X92985000Y-138172500D03*
X92985000Y-134872500D03*
%TD*%
%TO.C,D20*%
X31072500Y-81022500D03*
X31072500Y-77722500D03*
%TD*%
%TO.C,D29*%
X202522500Y-81022500D03*
X202522500Y-77722500D03*
%TD*%
D21*
%TO.C,C12*%
X268152500Y-126052500D03*
X268152500Y-127012500D03*
%TD*%
D11*
%TO.C,D41*%
X116797500Y-100135000D03*
X116797500Y-96835000D03*
%TD*%
D32*
%TO.C,F1*%
X263411000Y-50082000D03*
X263411000Y-51052000D03*
%TD*%
D30*
%TO.C,LED19*%
X6005000Y-59347500D03*
X6005000Y-60847500D03*
X11455000Y-59347500D03*
D31*
X11455000Y-60847500D03*
%TD*%
D21*
%TO.C,C36*%
X4162500Y-59352500D03*
X4162500Y-60312500D03*
%TD*%
D11*
%TO.C,D54*%
X45360000Y-119122500D03*
X45360000Y-115822500D03*
%TD*%
%TO.C,D50*%
X302535000Y-100072500D03*
X302535000Y-96772500D03*
%TD*%
D27*
%TO.C,C14*%
X266212000Y-112571250D03*
X265252000Y-112571250D03*
%TD*%
D20*
%TO.C,LED30*%
X207919285Y-162145000D03*
X207919285Y-163245000D03*
X206089285Y-163245000D03*
X206089285Y-162145000D03*
%TD*%
D11*
%TO.C,D11*%
X221572500Y-57210000D03*
X221572500Y-53910000D03*
%TD*%
D13*
%TO.C,R5*%
X269244150Y-109600000D03*
X269244150Y-108580000D03*
%TD*%
D25*
%TO.C,LED9*%
X159350000Y-46855000D03*
X159350000Y-45755000D03*
X161180000Y-45755000D03*
X161180000Y-46855000D03*
%TD*%
D20*
%TO.C,LED25*%
X31517500Y-162145000D03*
X31517500Y-163245000D03*
X29687500Y-163245000D03*
X29687500Y-162145000D03*
%TD*%
D11*
%TO.C,D87*%
X259672500Y-157222500D03*
X259672500Y-153922500D03*
%TD*%
%TO.C,D37*%
X40597500Y-100072500D03*
X40597500Y-96772500D03*
%TD*%
D25*
%TO.C,LED8*%
X110950000Y-46855000D03*
X110950000Y-45755000D03*
X112780000Y-45755000D03*
X112780000Y-46855000D03*
%TD*%
D11*
%TO.C,D44*%
X173947500Y-100072500D03*
X173947500Y-96772500D03*
%TD*%
D10*
%TO.C,C4*%
X270458000Y-127041250D03*
X270458000Y-126081250D03*
%TD*%
D14*
%TO.C,C33*%
X25982500Y-48040000D03*
X26942500Y-48040000D03*
%TD*%
D11*
%TO.C,D48*%
X241512500Y-100102500D03*
X241512500Y-96802500D03*
%TD*%
%TO.C,D12*%
X240622500Y-57210000D03*
X240622500Y-53910000D03*
%TD*%
D19*
%TO.C,R3*%
X271285000Y-49324000D03*
X271285000Y-50344000D03*
%TD*%
D27*
%TO.C,C47*%
X207980000Y-161010000D03*
X207020000Y-161010000D03*
%TD*%
D11*
%TO.C,D81*%
X25516250Y-157222500D03*
X25516250Y-153922500D03*
%TD*%
%TO.C,D85*%
X214428750Y-157222500D03*
X214428750Y-153922500D03*
%TD*%
D14*
%TO.C,C32*%
X72590000Y-47990000D03*
X73550000Y-47990000D03*
%TD*%
D11*
%TO.C,D34*%
X321585000Y-81022500D03*
X321585000Y-77722500D03*
%TD*%
%TO.C,D2*%
X31072500Y-57210000D03*
X31072500Y-53910000D03*
%TD*%
D25*
%TO.C,LED11*%
X246070000Y-46860000D03*
X246070000Y-45760000D03*
X247900000Y-45760000D03*
X247900000Y-46860000D03*
%TD*%
D11*
%TO.C,D6*%
X116797500Y-57210000D03*
X116797500Y-53910000D03*
%TD*%
D14*
%TO.C,C21*%
X303782500Y-122332500D03*
X304742500Y-122332500D03*
%TD*%
D11*
%TO.C,D5*%
X88222500Y-57210000D03*
X88222500Y-53910000D03*
%TD*%
D27*
%TO.C,C28*%
X247902500Y-48042500D03*
X246942500Y-48042500D03*
%TD*%
D11*
%TO.C,D23*%
X88222500Y-81022500D03*
X88222500Y-77722500D03*
%TD*%
%TO.C,D67*%
X35835000Y-138172500D03*
X35835000Y-134872500D03*
%TD*%
%TO.C,D71*%
X112035000Y-138172500D03*
X112035000Y-134872500D03*
%TD*%
D20*
%TO.C,LED22*%
X137358571Y-162145000D03*
X137358571Y-163245000D03*
X135528571Y-163245000D03*
X135528571Y-162145000D03*
%TD*%
D11*
%TO.C,D15*%
X302535000Y-57210000D03*
X302535000Y-53910000D03*
%TD*%
D27*
%TO.C,C42*%
X31600000Y-160960000D03*
X30640000Y-160960000D03*
%TD*%
D11*
%TO.C,D32*%
X283485000Y-81022500D03*
X283485000Y-77722500D03*
%TD*%
D10*
%TO.C,C38*%
X-15827500Y-57112500D03*
X-15827500Y-56152500D03*
%TD*%
D33*
%TO.C,U2*%
X269761250Y-50533000D03*
X269761250Y-51483000D03*
X269836250Y-52433000D03*
X267411250Y-52433000D03*
X267411250Y-51483000D03*
X267411250Y-50533000D03*
%TD*%
D11*
%TO.C,D51*%
X321585000Y-100072500D03*
X321585000Y-96772500D03*
%TD*%
D21*
%TO.C,C5*%
X276303000Y-126071250D03*
X276303000Y-127031250D03*
%TD*%
D15*
%TO.C,LED21*%
X-17120000Y-57125000D03*
X-18220000Y-57125000D03*
X-18220000Y-55295000D03*
X-17120000Y-55295000D03*
%TD*%
D22*
%TO.C,LED5*%
X309440000Y-119765000D03*
X310940000Y-119765000D03*
X309440000Y-114315000D03*
D23*
X310940000Y-114315000D03*
%TD*%
D11*
%TO.C,D69*%
X73935000Y-138172500D03*
X73935000Y-134872500D03*
%TD*%
D30*
%TO.C,LED18*%
X6005000Y-53350000D03*
X6005000Y-54850000D03*
X11455000Y-53350000D03*
D31*
X11455000Y-54850000D03*
%TD*%
D11*
%TO.C,D21*%
X50122500Y-81022500D03*
X50122500Y-77722500D03*
%TD*%
%TO.C,D30*%
X221572500Y-81022500D03*
X221572500Y-77722500D03*
%TD*%
%TO.C,D77*%
X222366250Y-138172500D03*
X222366250Y-134872500D03*
%TD*%
%TO.C,D89*%
X302535000Y-157222500D03*
X302535000Y-153922500D03*
%TD*%
D25*
%TO.C,LED12*%
X296560000Y-46860000D03*
X296560000Y-45760000D03*
X298390000Y-45760000D03*
X298390000Y-46860000D03*
%TD*%
D34*
%TO.C,U1*%
X265600000Y-57140000D03*
X263700000Y-57140000D03*
X264650000Y-55265000D03*
%TD*%
D10*
%TO.C,C39*%
X-15797500Y-83070000D03*
X-15797500Y-82110000D03*
%TD*%
D14*
%TO.C,C11*%
X286949129Y-106600000D03*
X287909129Y-106600000D03*
%TD*%
D11*
%TO.C,D74*%
X169185000Y-138172500D03*
X169185000Y-134872500D03*
%TD*%
%TO.C,D38*%
X59647500Y-100072500D03*
X59647500Y-96772500D03*
%TD*%
D14*
%TO.C,C9*%
X263670000Y-60520000D03*
X264630000Y-60520000D03*
%TD*%
D11*
%TO.C,D43*%
X154897500Y-100072500D03*
X154897500Y-96772500D03*
%TD*%
%TO.C,D18*%
X-7027500Y-81022500D03*
X-7027500Y-77722500D03*
%TD*%
D25*
%TO.C,LED15*%
X72630000Y-46855000D03*
X72630000Y-45755000D03*
X74460000Y-45755000D03*
X74460000Y-46855000D03*
%TD*%
D11*
%TO.C,D42*%
X135847500Y-100135000D03*
X135847500Y-96835000D03*
%TD*%
%TO.C,D58*%
X121560000Y-119060000D03*
X121560000Y-115760000D03*
%TD*%
D14*
%TO.C,C29*%
X204692500Y-48042500D03*
X205652500Y-48042500D03*
%TD*%
D21*
%TO.C,C41*%
X-15837500Y-134300000D03*
X-15837500Y-135260000D03*
%TD*%
D27*
%TO.C,C45*%
X137460000Y-161000000D03*
X136500000Y-161000000D03*
%TD*%
D11*
%TO.C,D16*%
X321585000Y-57210000D03*
X321585000Y-53910000D03*
%TD*%
D14*
%TO.C,C37*%
X-14097500Y-48020000D03*
X-13137500Y-48020000D03*
%TD*%
D27*
%TO.C,C43*%
X72700000Y-160960000D03*
X71740000Y-160960000D03*
%TD*%
D11*
%TO.C,D36*%
X21547500Y-100072500D03*
X21547500Y-96772500D03*
%TD*%
%TO.C,D86*%
X238241250Y-157222500D03*
X238241250Y-153922500D03*
%TD*%
D12*
%TO.C,LED14*%
X325360000Y-81175000D03*
X326460000Y-81175000D03*
X326460000Y-83005000D03*
X325360000Y-83005000D03*
%TD*%
D10*
%TO.C,C40*%
X-15767500Y-108980000D03*
X-15767500Y-108020000D03*
%TD*%
D11*
%TO.C,D49*%
X283485000Y-100072500D03*
X283485000Y-96772500D03*
%TD*%
%TO.C,D82*%
X50122500Y-157222500D03*
X50122500Y-153922500D03*
%TD*%
D14*
%TO.C,C18*%
X286902500Y-122402500D03*
X287862500Y-122402500D03*
%TD*%
D11*
%TO.C,D76*%
X207285000Y-138172500D03*
X207285000Y-134872500D03*
%TD*%
D10*
%TO.C,C15*%
X270552000Y-109570000D03*
X270552000Y-108610000D03*
%TD*%
D11*
%TO.C,D24*%
X107272500Y-81022500D03*
X107272500Y-77722500D03*
%TD*%
D13*
%TO.C,R2*%
X287067504Y-109586250D03*
X287067504Y-108566250D03*
%TD*%
D11*
%TO.C,D56*%
X83460000Y-119060000D03*
X83460000Y-115760000D03*
%TD*%
D14*
%TO.C,C16*%
X275953750Y-118144375D03*
X276913750Y-118144375D03*
%TD*%
D35*
%TO.C,J1*%
X265336250Y-47082500D03*
X266136250Y-47082500D03*
D36*
X267336250Y-47082500D03*
X268336250Y-47082500D03*
X268836250Y-47082500D03*
X269836250Y-47082500D03*
D35*
X271036250Y-47082500D03*
X271836250Y-47082500D03*
X271836250Y-47082500D03*
X271036250Y-47082500D03*
D36*
X270336250Y-47082500D03*
X269336250Y-47082500D03*
X267836250Y-47082500D03*
X266836250Y-47082500D03*
D35*
X266136250Y-47082500D03*
X265336250Y-47082500D03*
%TD*%
D22*
%TO.C,LED3*%
X298030000Y-119765000D03*
X299530000Y-119765000D03*
X298030000Y-114315000D03*
D23*
X299530000Y-114315000D03*
%TD*%
M02*
