%TF.GenerationSoftware,KiCad,Pcbnew,(6.0.5)*%
%TF.CreationDate,2022-07-04T16:20:22+08:00*%
%TF.ProjectId,track-lost,74726163-6b2d-46c6-9f73-742e6b696361,rev?*%
%TF.SameCoordinates,Original*%
%TF.FileFunction,Soldermask,Top*%
%TF.FilePolarity,Negative*%
%FSLAX46Y46*%
G04 Gerber Fmt 4.6, Leading zero omitted, Abs format (unit mm)*
G04 Created by KiCad (PCBNEW (6.0.5)) date 2022-07-04 16:20:22*
%MOMM*%
%LPD*%
G01*
G04 APERTURE LIST*
%ADD10C,3.048000*%
%ADD11C,3.987800*%
%ADD12C,1.750000*%
%ADD13C,0.650000*%
%ADD14O,1.000000X1.600000*%
%ADD15O,1.000000X2.100000*%
G04 APERTURE END LIST*
D10*
%TO.C,S1*%
X258881250Y-71427500D03*
X235068750Y-71427500D03*
D11*
X235068750Y-86667500D03*
X258881250Y-86667500D03*
%TD*%
D12*
%TO.C,SW33*%
X232370000Y-78412500D03*
D11*
X237450000Y-78412500D03*
D12*
X242530000Y-78412500D03*
%TD*%
%TO.C,SW82*%
X209192500Y-135562500D03*
D11*
X204112500Y-135562500D03*
D12*
X199032500Y-135562500D03*
%TD*%
D11*
%TO.C,SW76*%
X89812500Y-135562500D03*
D12*
X84732500Y-135562500D03*
X94892500Y-135562500D03*
%TD*%
D11*
%TO.C,SW8*%
X132675000Y-54600000D03*
D12*
X137755000Y-54600000D03*
X127595000Y-54600000D03*
%TD*%
D11*
%TO.C,SW83*%
X239831250Y-135562500D03*
D12*
X244911250Y-135562500D03*
X234751250Y-135562500D03*
%TD*%
%TO.C,SW2*%
X-15255000Y-54625000D03*
D11*
X-10175000Y-54625000D03*
D12*
X-5095000Y-54625000D03*
%TD*%
D11*
%TO.C,SW28*%
X161250000Y-78412500D03*
D12*
X166330000Y-78412500D03*
X156170000Y-78412500D03*
%TD*%
%TO.C,SW42*%
X89495000Y-97462500D03*
X99655000Y-97462500D03*
D11*
X94575000Y-97462500D03*
%TD*%
D12*
%TO.C,SW36*%
X323492500Y-78412500D03*
X313332500Y-78412500D03*
D11*
X318412500Y-78412500D03*
%TD*%
D12*
%TO.C,SW95*%
X187761250Y-154612500D03*
X177601250Y-154612500D03*
D11*
X182681250Y-154612500D03*
%TD*%
D12*
%TO.C,SW97*%
X211573750Y-154612500D03*
X201413750Y-154612500D03*
D11*
X206493750Y-154612500D03*
%TD*%
D12*
%TO.C,SW84*%
X235386250Y-135562500D03*
D11*
X230306250Y-135562500D03*
D12*
X225226250Y-135562500D03*
%TD*%
D11*
%TO.C,SW90*%
X18375000Y-154612500D03*
D12*
X23455000Y-154612500D03*
X13295000Y-154612500D03*
%TD*%
D11*
%TO.C,SW51*%
X254118750Y-106987500D03*
D12*
X259198750Y-106987500D03*
X249038750Y-106987500D03*
%TD*%
D11*
%TO.C,SW87*%
X-7818750Y-154612500D03*
D12*
X-2738750Y-154612500D03*
X-12898750Y-154612500D03*
%TD*%
D11*
%TO.C,SW80*%
X166012500Y-135562500D03*
D12*
X160932500Y-135562500D03*
X171092500Y-135562500D03*
%TD*%
%TO.C,SW27*%
X137120000Y-78412500D03*
D11*
X142200000Y-78412500D03*
D12*
X147280000Y-78412500D03*
%TD*%
D11*
%TO.C,SW9*%
X151725000Y-54600000D03*
D12*
X146645000Y-54600000D03*
X156805000Y-54600000D03*
%TD*%
%TO.C,SW100*%
X254436250Y-154612500D03*
D11*
X249356250Y-154612500D03*
D12*
X244276250Y-154612500D03*
%TD*%
%TO.C,SW67*%
X208557500Y-116512500D03*
X218717500Y-116512500D03*
D11*
X213637500Y-116512500D03*
%TD*%
D12*
%TO.C,SW71*%
X6786250Y-135562500D03*
X-3373750Y-135562500D03*
D11*
X1706250Y-135562500D03*
%TD*%
D12*
%TO.C,SW40*%
X51395000Y-97462500D03*
D11*
X56475000Y-97462500D03*
D12*
X61555000Y-97462500D03*
%TD*%
D11*
%TO.C,SW52*%
X280312500Y-97462500D03*
D12*
X285392500Y-97462500D03*
X275232500Y-97462500D03*
%TD*%
D11*
%TO.C,SW15*%
X280312500Y-54600000D03*
D12*
X285392500Y-54600000D03*
X275232500Y-54600000D03*
%TD*%
%TO.C,SW46*%
X175850000Y-97460000D03*
X165690000Y-97460000D03*
D11*
X170770000Y-97460000D03*
%TD*%
D12*
%TO.C,SW49*%
X233005000Y-97460000D03*
D11*
X227925000Y-97460000D03*
D12*
X222845000Y-97460000D03*
%TD*%
%TO.C,SW68*%
X237767500Y-116512500D03*
X227607500Y-116512500D03*
D11*
X232687500Y-116512500D03*
%TD*%
D12*
%TO.C,SW65*%
X170457500Y-116512500D03*
X180617500Y-116512500D03*
D11*
X175537500Y-116512500D03*
%TD*%
D12*
%TO.C,SW101*%
X246657500Y-154612500D03*
X256817500Y-154612500D03*
D11*
X251737500Y-154612500D03*
%TD*%
D12*
%TO.C,SW43*%
X118705000Y-97462500D03*
X108545000Y-97462500D03*
D11*
X113625000Y-97462500D03*
%TD*%
D12*
%TO.C,SW79*%
X141882500Y-135562500D03*
D11*
X146962500Y-135562500D03*
D12*
X152042500Y-135562500D03*
%TD*%
D11*
%TO.C,SW61*%
X99337500Y-116512500D03*
D12*
X104417500Y-116512500D03*
X94257500Y-116512500D03*
%TD*%
%TO.C,SW38*%
X23455000Y-97462500D03*
X13295000Y-97462500D03*
D11*
X18375000Y-97462500D03*
%TD*%
%TO.C,SW34*%
X280312500Y-78412500D03*
D12*
X285392500Y-78412500D03*
X275232500Y-78412500D03*
%TD*%
%TO.C,SW5*%
X60920000Y-54600000D03*
X71080000Y-54600000D03*
D11*
X66000000Y-54600000D03*
%TD*%
D12*
%TO.C,SW30*%
X204430000Y-78412500D03*
D11*
X199350000Y-78412500D03*
D12*
X194270000Y-78412500D03*
%TD*%
%TO.C,SW57*%
X18057500Y-116512500D03*
D11*
X23137500Y-116512500D03*
D12*
X28217500Y-116512500D03*
%TD*%
%TO.C,SW53*%
X304442500Y-97462500D03*
X294282500Y-97462500D03*
D11*
X299362500Y-97462500D03*
%TD*%
%TO.C,SW21*%
X27900000Y-78412500D03*
D12*
X32980000Y-78412500D03*
X22820000Y-78412500D03*
%TD*%
D11*
%TO.C,S5*%
X251737500Y-143817500D03*
D10*
X251737500Y-128577500D03*
X227925000Y-128577500D03*
D11*
X227925000Y-143817500D03*
%TD*%
D12*
%TO.C,SW16*%
X294282500Y-54600000D03*
X304442500Y-54600000D03*
D11*
X299362500Y-54600000D03*
%TD*%
%TO.C,SW47*%
X189825000Y-97460000D03*
D12*
X194905000Y-97460000D03*
X184745000Y-97460000D03*
%TD*%
D11*
%TO.C,SW104*%
X318412500Y-154612500D03*
D12*
X313332500Y-154612500D03*
X323492500Y-154612500D03*
%TD*%
%TO.C,SW102*%
X285392500Y-154612500D03*
X275232500Y-154612500D03*
D11*
X280312500Y-154612500D03*
%TD*%
D12*
%TO.C,SW69*%
X249673750Y-116512500D03*
X239513750Y-116512500D03*
D11*
X244593750Y-116512500D03*
%TD*%
%TO.C,SW75*%
X70762500Y-135562500D03*
D12*
X65682500Y-135562500D03*
X75842500Y-135562500D03*
%TD*%
%TO.C,SW31*%
X213320000Y-78412500D03*
X223480000Y-78412500D03*
D11*
X218400000Y-78412500D03*
%TD*%
%TO.C,SW24*%
X85050000Y-78412500D03*
D12*
X79970000Y-78412500D03*
X90130000Y-78412500D03*
%TD*%
%TO.C,SW92*%
X47267500Y-154612500D03*
D11*
X42187500Y-154612500D03*
D12*
X37107500Y-154612500D03*
%TD*%
D10*
%TO.C,S3*%
X256500000Y-123497500D03*
D11*
X232687500Y-108257500D03*
X256500000Y-108257500D03*
D10*
X232687500Y-123497500D03*
%TD*%
D12*
%TO.C,SW32*%
X252055000Y-78412500D03*
D11*
X246975000Y-78412500D03*
D12*
X241895000Y-78412500D03*
%TD*%
%TO.C,SW59*%
X56157500Y-116512500D03*
X66317500Y-116512500D03*
D11*
X61237500Y-116512500D03*
%TD*%
D12*
%TO.C,SW6*%
X79970000Y-54600000D03*
X90130000Y-54600000D03*
D11*
X85050000Y-54600000D03*
%TD*%
D12*
%TO.C,SW58*%
X47267500Y-116512500D03*
X37107500Y-116512500D03*
D11*
X42187500Y-116512500D03*
%TD*%
%TO.C,SW77*%
X108862500Y-135562500D03*
D12*
X113942500Y-135562500D03*
X103782500Y-135562500D03*
%TD*%
D11*
%TO.C,SW103*%
X299362500Y-154612500D03*
D12*
X304442500Y-154612500D03*
X294282500Y-154612500D03*
%TD*%
D11*
%TO.C,S6*%
X161250000Y-146357500D03*
D10*
X61237500Y-161597500D03*
X161250000Y-161597500D03*
D11*
X61237500Y-146357500D03*
%TD*%
%TO.C,SW62*%
X118387500Y-116512500D03*
D12*
X113307500Y-116512500D03*
X123467500Y-116512500D03*
%TD*%
%TO.C,SW20*%
X3770000Y-78412500D03*
X13930000Y-78412500D03*
D11*
X8850000Y-78412500D03*
%TD*%
%TO.C,SW44*%
X132675000Y-97462500D03*
D12*
X137755000Y-97462500D03*
X127595000Y-97462500D03*
%TD*%
%TO.C,SW45*%
X146645000Y-97462500D03*
D11*
X151725000Y-97462500D03*
D12*
X156805000Y-97462500D03*
%TD*%
%TO.C,SW4*%
X41870000Y-54600000D03*
X52030000Y-54600000D03*
D11*
X46950000Y-54600000D03*
%TD*%
D12*
%TO.C,SW74*%
X56792500Y-135562500D03*
X46632500Y-135562500D03*
D11*
X51712500Y-135562500D03*
%TD*%
D12*
%TO.C,SW26*%
X118070000Y-78412500D03*
X128230000Y-78412500D03*
D11*
X123150000Y-78412500D03*
%TD*%
D12*
%TO.C,SW89*%
X21073750Y-154612500D03*
X10913750Y-154612500D03*
D11*
X15993750Y-154612500D03*
%TD*%
D12*
%TO.C,SW50*%
X246657500Y-97460000D03*
X256817500Y-97460000D03*
D11*
X251737500Y-97460000D03*
%TD*%
D12*
%TO.C,SW91*%
X34726250Y-154612500D03*
X44886250Y-154612500D03*
D11*
X39806250Y-154612500D03*
%TD*%
%TO.C,SW13*%
X237450000Y-54600000D03*
D12*
X242530000Y-54600000D03*
X232370000Y-54600000D03*
%TD*%
%TO.C,SW17*%
X323492500Y-54600000D03*
D11*
X318412500Y-54600000D03*
D12*
X313332500Y-54600000D03*
%TD*%
%TO.C,SW85*%
X251420000Y-135562500D03*
D11*
X256500000Y-135562500D03*
D12*
X261580000Y-135562500D03*
%TD*%
%TO.C,SW60*%
X75207500Y-116512500D03*
D11*
X80287500Y-116512500D03*
D12*
X85367500Y-116512500D03*
%TD*%
D11*
%TO.C,SW48*%
X208875000Y-97460000D03*
D12*
X213955000Y-97460000D03*
X203795000Y-97460000D03*
%TD*%
D11*
%TO.C,SW3*%
X27900000Y-54600000D03*
D12*
X22820000Y-54600000D03*
X32980000Y-54600000D03*
%TD*%
D11*
%TO.C,S7*%
X66000000Y-146357500D03*
D10*
X180300000Y-161597500D03*
X66000000Y-161597500D03*
D11*
X180300000Y-146357500D03*
%TD*%
D12*
%TO.C,SW56*%
X2023750Y-116512500D03*
D11*
X-3056250Y-116512500D03*
D12*
X-8136250Y-116512500D03*
%TD*%
%TO.C,SW93*%
X106163750Y-154612500D03*
D11*
X111243750Y-154612500D03*
D12*
X116323750Y-154612500D03*
%TD*%
D11*
%TO.C,SW41*%
X75525000Y-97462500D03*
D12*
X80605000Y-97462500D03*
X70445000Y-97462500D03*
%TD*%
%TO.C,SW98*%
X233005000Y-154612500D03*
X222845000Y-154612500D03*
D11*
X227925000Y-154612500D03*
%TD*%
D12*
%TO.C,SW73*%
X37742500Y-135562500D03*
X27582500Y-135562500D03*
D11*
X32662500Y-135562500D03*
%TD*%
%TO.C,SW64*%
X156487500Y-116512500D03*
D12*
X161567500Y-116512500D03*
X151407500Y-116512500D03*
%TD*%
%TO.C,SW54*%
X323492500Y-97462500D03*
X313332500Y-97462500D03*
D11*
X318412500Y-97462500D03*
%TD*%
D12*
%TO.C,SW88*%
X-357500Y-154612500D03*
D11*
X-5437500Y-154612500D03*
D12*
X-10517500Y-154612500D03*
%TD*%
%TO.C,SW78*%
X132992500Y-135562500D03*
D11*
X127912500Y-135562500D03*
D12*
X122832500Y-135562500D03*
%TD*%
D11*
%TO.C,SW23*%
X66000000Y-78412500D03*
D12*
X60920000Y-78412500D03*
X71080000Y-78412500D03*
%TD*%
D11*
%TO.C,SW39*%
X37425000Y-97462500D03*
D12*
X32345000Y-97462500D03*
X42505000Y-97462500D03*
%TD*%
D11*
%TO.C,SW10*%
X170775000Y-54600000D03*
D12*
X165695000Y-54600000D03*
X175855000Y-54600000D03*
%TD*%
D11*
%TO.C,SW22*%
X46950000Y-78412500D03*
D12*
X41870000Y-78412500D03*
X52030000Y-78412500D03*
%TD*%
%TO.C,SW70*%
X-2738750Y-135562500D03*
D11*
X-7818750Y-135562500D03*
D12*
X-12898750Y-135562500D03*
%TD*%
%TO.C,SW99*%
X225226250Y-154612500D03*
D11*
X230306250Y-154612500D03*
D12*
X235386250Y-154612500D03*
%TD*%
D10*
%TO.C,S4*%
X13612500Y-128577500D03*
D11*
X-10200000Y-143817500D03*
D10*
X-10200000Y-128577500D03*
D11*
X13612500Y-143817500D03*
%TD*%
%TO.C,SW96*%
X204112500Y-154612500D03*
D12*
X209192500Y-154612500D03*
X199032500Y-154612500D03*
%TD*%
D11*
%TO.C,SW7*%
X113625000Y-54600000D03*
D12*
X108545000Y-54600000D03*
X118705000Y-54600000D03*
%TD*%
D11*
%TO.C,SW25*%
X104100000Y-78412500D03*
D12*
X99020000Y-78412500D03*
X109180000Y-78412500D03*
%TD*%
%TO.C,SW37*%
X-10517500Y-97462500D03*
X-357500Y-97462500D03*
D11*
X-5437500Y-97462500D03*
%TD*%
D12*
%TO.C,SW35*%
X304442500Y-78412500D03*
D11*
X299362500Y-78412500D03*
D12*
X294282500Y-78412500D03*
%TD*%
%TO.C,SW86*%
X294282500Y-135562500D03*
D11*
X299362500Y-135562500D03*
D12*
X304442500Y-135562500D03*
%TD*%
D11*
%TO.C,SW12*%
X218400000Y-54600000D03*
D12*
X223480000Y-54600000D03*
X213320000Y-54600000D03*
%TD*%
%TO.C,SW55*%
X-12898750Y-116512500D03*
D11*
X-7818750Y-116512500D03*
D12*
X-2738750Y-116512500D03*
%TD*%
D11*
%TO.C,SW11*%
X199380000Y-54600000D03*
D12*
X194300000Y-54600000D03*
X204460000Y-54600000D03*
%TD*%
D11*
%TO.C,SW66*%
X194587500Y-116512500D03*
D12*
X199667500Y-116512500D03*
X189507500Y-116512500D03*
%TD*%
%TO.C,SW29*%
X175220000Y-78412500D03*
D11*
X180300000Y-78412500D03*
D12*
X185380000Y-78412500D03*
%TD*%
%TO.C,SW14*%
X261580000Y-54600000D03*
D11*
X256500000Y-54600000D03*
D12*
X251420000Y-54600000D03*
%TD*%
%TO.C,SW72*%
X8532500Y-135562500D03*
X18692500Y-135562500D03*
D11*
X13612500Y-135562500D03*
%TD*%
D10*
%TO.C,S2*%
X261103750Y-95081250D03*
D11*
X245863750Y-118893750D03*
D10*
X261103750Y-118893750D03*
D11*
X245863750Y-95081250D03*
%TD*%
D12*
%TO.C,SW18*%
X261580000Y-78412500D03*
X251420000Y-78412500D03*
D11*
X256500000Y-78412500D03*
%TD*%
D12*
%TO.C,SW94*%
X128230000Y-154612500D03*
X118070000Y-154612500D03*
D11*
X123150000Y-154612500D03*
%TD*%
D12*
%TO.C,SW63*%
X142517500Y-116512500D03*
D11*
X137437500Y-116512500D03*
D12*
X132357500Y-116512500D03*
%TD*%
D11*
%TO.C,SW19*%
X-10175000Y-78412500D03*
D12*
X-5095000Y-78412500D03*
X-15255000Y-78412500D03*
%TD*%
D11*
%TO.C,SW81*%
X185062500Y-135562500D03*
D12*
X179982500Y-135562500D03*
X190142500Y-135562500D03*
%TD*%
D13*
%TO.C,J1*%
X265696250Y-45637500D03*
X271476250Y-45637500D03*
D14*
X272906250Y-41987500D03*
X264266250Y-41987500D03*
D15*
X272906250Y-46167500D03*
X264266250Y-46167500D03*
%TD*%
M02*
