%TF.GenerationSoftware,KiCad,Pcbnew,(6.0.5)*%
%TF.CreationDate,2022-07-03T11:08:47+08:00*%
%TF.ProjectId,track-lost,74726163-6b2d-46c6-9f73-742e6b696361,rev?*%
%TF.SameCoordinates,Original*%
%TF.FileFunction,Soldermask,Bot*%
%TF.FilePolarity,Negative*%
%FSLAX46Y46*%
G04 Gerber Fmt 4.6, Leading zero omitted, Abs format (unit mm)*
G04 Created by KiCad (PCBNEW (6.0.5)) date 2022-07-03 11:08:47*
%MOMM*%
%LPD*%
G01*
G04 APERTURE LIST*
G04 Aperture macros list*
%AMRoundRect*
0 Rectangle with rounded corners*
0 $1 Rounding radius*
0 $2 $3 $4 $5 $6 $7 $8 $9 X,Y pos of 4 corners*
0 Add a 4 corners polygon primitive as box body*
4,1,4,$2,$3,$4,$5,$6,$7,$8,$9,$2,$3,0*
0 Add four circle primitives for the rounded corners*
1,1,$1+$1,$2,$3*
1,1,$1+$1,$4,$5*
1,1,$1+$1,$6,$7*
1,1,$1+$1,$8,$9*
0 Add four rect primitives between the rounded corners*
20,1,$1+$1,$2,$3,$4,$5,0*
20,1,$1+$1,$4,$5,$6,$7,0*
20,1,$1+$1,$6,$7,$8,$9,0*
20,1,$1+$1,$8,$9,$2,$3,0*%
%AMFreePoly0*
4,1,18,-0.410000,0.593000,-0.403758,0.624380,-0.385983,0.650983,-0.359380,0.668758,-0.328000,0.675000,0.328000,0.675000,0.359380,0.668758,0.385983,0.650983,0.403758,0.624380,0.410000,0.593000,0.410000,-0.593000,0.403758,-0.624380,0.385983,-0.650983,0.359380,-0.668758,0.328000,-0.675000,0.000000,-0.675000,-0.410000,-0.265000,-0.410000,0.593000,-0.410000,0.593000,$1*%
G04 Aperture macros list end*
%ADD10C,3.048000*%
%ADD11C,3.987800*%
%ADD12C,1.750000*%
%ADD13C,2.300000*%
%ADD14RoundRect,0.140000X0.170000X-0.140000X0.170000X0.140000X-0.170000X0.140000X-0.170000X-0.140000X0*%
%ADD15R,1.200000X0.900000*%
%ADD16RoundRect,0.105000X-0.245000X0.245000X-0.245000X-0.245000X0.245000X-0.245000X0.245000X0.245000X0*%
%ADD17RoundRect,0.135000X0.185000X-0.135000X0.185000X0.135000X-0.185000X0.135000X-0.185000X-0.135000X0*%
%ADD18RoundRect,0.140000X-0.140000X-0.170000X0.140000X-0.170000X0.140000X0.170000X-0.140000X0.170000X0*%
%ADD19RoundRect,0.105000X0.245000X-0.245000X0.245000X0.245000X-0.245000X0.245000X-0.245000X-0.245000X0*%
%ADD20RoundRect,0.050000X0.387500X0.050000X-0.387500X0.050000X-0.387500X-0.050000X0.387500X-0.050000X0*%
%ADD21RoundRect,0.050000X0.050000X0.387500X-0.050000X0.387500X-0.050000X-0.387500X0.050000X-0.387500X0*%
%ADD22RoundRect,0.144000X1.456000X1.456000X-1.456000X1.456000X-1.456000X-1.456000X1.456000X-1.456000X0*%
%ADD23RoundRect,0.135000X-0.185000X0.135000X-0.185000X-0.135000X0.185000X-0.135000X0.185000X0.135000X0*%
%ADD24RoundRect,0.105000X0.245000X0.245000X-0.245000X0.245000X-0.245000X-0.245000X0.245000X-0.245000X0*%
%ADD25RoundRect,0.140000X-0.170000X0.140000X-0.170000X-0.140000X0.170000X-0.140000X0.170000X0.140000X0*%
%ADD26RoundRect,0.082000X0.328000X0.593000X-0.328000X0.593000X-0.328000X-0.593000X0.328000X-0.593000X0*%
%ADD27FreePoly0,180.000000*%
%ADD28RoundRect,0.150000X0.650000X0.150000X-0.650000X0.150000X-0.650000X-0.150000X0.650000X-0.150000X0*%
%ADD29RoundRect,0.105000X-0.245000X-0.245000X0.245000X-0.245000X0.245000X0.245000X-0.245000X0.245000X0*%
%ADD30R,1.400000X1.200000*%
%ADD31RoundRect,0.140000X0.140000X0.170000X-0.140000X0.170000X-0.140000X-0.170000X0.140000X-0.170000X0*%
%ADD32RoundRect,0.150000X-0.512500X-0.150000X0.512500X-0.150000X0.512500X0.150000X-0.512500X0.150000X0*%
%ADD33R,1.800000X1.100000*%
%ADD34RoundRect,0.082000X0.593000X-0.328000X0.593000X0.328000X-0.593000X0.328000X-0.593000X-0.328000X0*%
%ADD35FreePoly0,90.000000*%
%ADD36RoundRect,0.147500X-0.172500X0.147500X-0.172500X-0.147500X0.172500X-0.147500X0.172500X0.147500X0*%
%ADD37RoundRect,0.150000X0.475000X0.150000X-0.475000X0.150000X-0.475000X-0.150000X0.475000X-0.150000X0*%
%ADD38RoundRect,0.150000X0.150000X-0.587500X0.150000X0.587500X-0.150000X0.587500X-0.150000X-0.587500X0*%
%ADD39C,0.650000*%
%ADD40R,0.600000X1.450000*%
%ADD41R,0.300000X1.450000*%
%ADD42O,1.000000X1.600000*%
%ADD43O,1.000000X2.100000*%
G04 APERTURE END LIST*
D10*
%TO.C,S1*%
X258881250Y-71427500D03*
X235068750Y-71427500D03*
D11*
X235068750Y-86667500D03*
X258881250Y-86667500D03*
%TD*%
D12*
%TO.C,SW33*%
X232370000Y-78412500D03*
D11*
X237450000Y-78412500D03*
D12*
X242530000Y-78412500D03*
D13*
X233640000Y-75872500D03*
X239990000Y-73332500D03*
%TD*%
D12*
%TO.C,SW82*%
X209192500Y-135562500D03*
D11*
X204112500Y-135562500D03*
D12*
X199032500Y-135562500D03*
D13*
X200302500Y-133022500D03*
X206652500Y-130482500D03*
%TD*%
D11*
%TO.C,SW76*%
X89812500Y-135562500D03*
D12*
X84732500Y-135562500D03*
X94892500Y-135562500D03*
D13*
X86002500Y-133022500D03*
X92352500Y-130482500D03*
%TD*%
D11*
%TO.C,SW8*%
X132675000Y-54600000D03*
D12*
X137755000Y-54600000D03*
X127595000Y-54600000D03*
D13*
X128865000Y-52060000D03*
X135215000Y-49520000D03*
%TD*%
D11*
%TO.C,SW83*%
X239831250Y-135562500D03*
D12*
X244911250Y-135562500D03*
X234751250Y-135562500D03*
D13*
X236021250Y-133022500D03*
X242371250Y-130482500D03*
%TD*%
D12*
%TO.C,SW2*%
X-15255000Y-54625000D03*
D11*
X-10175000Y-54625000D03*
D12*
X-5095000Y-54625000D03*
D13*
X-13985000Y-52085000D03*
X-7635000Y-49545000D03*
%TD*%
D11*
%TO.C,SW28*%
X161250000Y-78412500D03*
D12*
X166330000Y-78412500D03*
X156170000Y-78412500D03*
D13*
X157440000Y-75872500D03*
X163790000Y-73332500D03*
%TD*%
D12*
%TO.C,SW42*%
X89495000Y-97462500D03*
X99655000Y-97462500D03*
D11*
X94575000Y-97462500D03*
D13*
X90765000Y-94922500D03*
X97115000Y-92382500D03*
%TD*%
D12*
%TO.C,SW36*%
X323492500Y-78412500D03*
X313332500Y-78412500D03*
D11*
X318412500Y-78412500D03*
D13*
X314602500Y-75872500D03*
X320952500Y-73332500D03*
%TD*%
D12*
%TO.C,SW95*%
X187761250Y-154612500D03*
X177601250Y-154612500D03*
D11*
X182681250Y-154612500D03*
D13*
X178871250Y-152072500D03*
X185221250Y-149532500D03*
%TD*%
D12*
%TO.C,SW97*%
X211573750Y-154612500D03*
X201413750Y-154612500D03*
D11*
X206493750Y-154612500D03*
D13*
X202683750Y-152072500D03*
X209033750Y-149532500D03*
%TD*%
D12*
%TO.C,SW84*%
X235386250Y-135562500D03*
D11*
X230306250Y-135562500D03*
D12*
X225226250Y-135562500D03*
D13*
X226496250Y-133022500D03*
X232846250Y-130482500D03*
%TD*%
D11*
%TO.C,SW90*%
X18375000Y-154612500D03*
D12*
X23455000Y-154612500D03*
X13295000Y-154612500D03*
D13*
X14565000Y-152072500D03*
X20915000Y-149532500D03*
%TD*%
D11*
%TO.C,SW51*%
X254118750Y-106987500D03*
D12*
X259198750Y-106987500D03*
X249038750Y-106987500D03*
D13*
X250308750Y-104447500D03*
X256658750Y-101907500D03*
%TD*%
D11*
%TO.C,SW87*%
X-7818750Y-154612500D03*
D12*
X-2738750Y-154612500D03*
X-12898750Y-154612500D03*
D13*
X-11628750Y-152072500D03*
X-5278750Y-149532500D03*
%TD*%
D11*
%TO.C,SW80*%
X166012500Y-135562500D03*
D12*
X160932500Y-135562500D03*
X171092500Y-135562500D03*
D13*
X162202500Y-133022500D03*
X168552500Y-130482500D03*
%TD*%
D12*
%TO.C,SW27*%
X137120000Y-78412500D03*
D11*
X142200000Y-78412500D03*
D12*
X147280000Y-78412500D03*
D13*
X138390000Y-75872500D03*
X144740000Y-73332500D03*
%TD*%
D11*
%TO.C,SW9*%
X151725000Y-54600000D03*
D12*
X146645000Y-54600000D03*
X156805000Y-54600000D03*
D13*
X147915000Y-52060000D03*
X154265000Y-49520000D03*
%TD*%
D12*
%TO.C,SW100*%
X254436250Y-154612500D03*
D11*
X249356250Y-154612500D03*
D12*
X244276250Y-154612500D03*
D13*
X245546250Y-152072500D03*
X251896250Y-149532500D03*
%TD*%
D12*
%TO.C,SW67*%
X208557500Y-116512500D03*
X218717500Y-116512500D03*
D11*
X213637500Y-116512500D03*
D13*
X209827500Y-113972500D03*
X216177500Y-111432500D03*
%TD*%
D12*
%TO.C,SW71*%
X6786250Y-135562500D03*
X-3373750Y-135562500D03*
D11*
X1706250Y-135562500D03*
D13*
X-2103750Y-133022500D03*
X4246250Y-130482500D03*
%TD*%
D12*
%TO.C,SW40*%
X51395000Y-97462500D03*
D11*
X56475000Y-97462500D03*
D12*
X61555000Y-97462500D03*
D13*
X52665000Y-94922500D03*
X59015000Y-92382500D03*
%TD*%
D11*
%TO.C,SW52*%
X280312500Y-97462500D03*
D12*
X285392500Y-97462500D03*
X275232500Y-97462500D03*
D13*
X276502500Y-94922500D03*
X282852500Y-92382500D03*
%TD*%
D11*
%TO.C,SW15*%
X280312500Y-54600000D03*
D12*
X285392500Y-54600000D03*
X275232500Y-54600000D03*
D13*
X276502500Y-52060000D03*
X282852500Y-49520000D03*
%TD*%
D12*
%TO.C,SW46*%
X175850000Y-97460000D03*
X165690000Y-97460000D03*
D11*
X170770000Y-97460000D03*
D13*
X166960000Y-94920000D03*
X173310000Y-92380000D03*
%TD*%
D12*
%TO.C,SW49*%
X233005000Y-97460000D03*
D11*
X227925000Y-97460000D03*
D12*
X222845000Y-97460000D03*
D13*
X224115000Y-94920000D03*
X230465000Y-92380000D03*
%TD*%
D12*
%TO.C,SW68*%
X237767500Y-116512500D03*
X227607500Y-116512500D03*
D11*
X232687500Y-116512500D03*
D13*
X228877500Y-113972500D03*
X235227500Y-111432500D03*
%TD*%
D12*
%TO.C,SW65*%
X170457500Y-116512500D03*
X180617500Y-116512500D03*
D11*
X175537500Y-116512500D03*
D13*
X171727500Y-113972500D03*
X178077500Y-111432500D03*
%TD*%
D12*
%TO.C,SW101*%
X246657500Y-154612500D03*
X256817500Y-154612500D03*
D11*
X251737500Y-154612500D03*
D13*
X247927500Y-152072500D03*
X254277500Y-149532500D03*
%TD*%
D12*
%TO.C,SW43*%
X118705000Y-97462500D03*
X108545000Y-97462500D03*
D11*
X113625000Y-97462500D03*
D13*
X109815000Y-94922500D03*
X116165000Y-92382500D03*
%TD*%
D12*
%TO.C,SW79*%
X141882500Y-135562500D03*
D11*
X146962500Y-135562500D03*
D12*
X152042500Y-135562500D03*
D13*
X143152500Y-133022500D03*
X149502500Y-130482500D03*
%TD*%
D11*
%TO.C,SW61*%
X99337500Y-116512500D03*
D12*
X104417500Y-116512500D03*
X94257500Y-116512500D03*
D13*
X95527500Y-113972500D03*
X101877500Y-111432500D03*
%TD*%
D12*
%TO.C,SW38*%
X23455000Y-97462500D03*
X13295000Y-97462500D03*
D11*
X18375000Y-97462500D03*
D13*
X14565000Y-94922500D03*
X20915000Y-92382500D03*
%TD*%
D11*
%TO.C,SW34*%
X280312500Y-78412500D03*
D12*
X285392500Y-78412500D03*
X275232500Y-78412500D03*
D13*
X276502500Y-75872500D03*
X282852500Y-73332500D03*
%TD*%
D12*
%TO.C,SW5*%
X60920000Y-54600000D03*
X71080000Y-54600000D03*
D11*
X66000000Y-54600000D03*
D13*
X62190000Y-52060000D03*
X68540000Y-49520000D03*
%TD*%
D12*
%TO.C,SW30*%
X204430000Y-78412500D03*
D11*
X199350000Y-78412500D03*
D12*
X194270000Y-78412500D03*
D13*
X195540000Y-75872500D03*
X201890000Y-73332500D03*
%TD*%
D12*
%TO.C,SW57*%
X18057500Y-116512500D03*
D11*
X23137500Y-116512500D03*
D12*
X28217500Y-116512500D03*
D13*
X19327500Y-113972500D03*
X25677500Y-111432500D03*
%TD*%
D12*
%TO.C,SW53*%
X304442500Y-97462500D03*
X294282500Y-97462500D03*
D11*
X299362500Y-97462500D03*
D13*
X295552500Y-94922500D03*
X301902500Y-92382500D03*
%TD*%
D11*
%TO.C,SW21*%
X27900000Y-78412500D03*
D12*
X32980000Y-78412500D03*
X22820000Y-78412500D03*
D13*
X24090000Y-75872500D03*
X30440000Y-73332500D03*
%TD*%
D11*
%TO.C,S5*%
X251737500Y-143817500D03*
D10*
X251737500Y-128577500D03*
X227925000Y-128577500D03*
D11*
X227925000Y-143817500D03*
%TD*%
D12*
%TO.C,SW16*%
X294282500Y-54600000D03*
X304442500Y-54600000D03*
D11*
X299362500Y-54600000D03*
D13*
X295552500Y-52060000D03*
X301902500Y-49520000D03*
%TD*%
D11*
%TO.C,SW47*%
X189825000Y-97460000D03*
D12*
X194905000Y-97460000D03*
X184745000Y-97460000D03*
D13*
X186015000Y-94920000D03*
X192365000Y-92380000D03*
%TD*%
D11*
%TO.C,SW104*%
X318412500Y-154612500D03*
D12*
X313332500Y-154612500D03*
X323492500Y-154612500D03*
D13*
X314602500Y-152072500D03*
X320952500Y-149532500D03*
%TD*%
D12*
%TO.C,SW102*%
X285392500Y-154612500D03*
X275232500Y-154612500D03*
D11*
X280312500Y-154612500D03*
D13*
X276502500Y-152072500D03*
X282852500Y-149532500D03*
%TD*%
D12*
%TO.C,SW69*%
X249673750Y-116512500D03*
X239513750Y-116512500D03*
D11*
X244593750Y-116512500D03*
D13*
X240783750Y-113972500D03*
X247133750Y-111432500D03*
%TD*%
D11*
%TO.C,SW75*%
X70762500Y-135562500D03*
D12*
X65682500Y-135562500D03*
X75842500Y-135562500D03*
D13*
X66952500Y-133022500D03*
X73302500Y-130482500D03*
%TD*%
D12*
%TO.C,SW31*%
X213320000Y-78412500D03*
X223480000Y-78412500D03*
D11*
X218400000Y-78412500D03*
D13*
X214590000Y-75872500D03*
X220940000Y-73332500D03*
%TD*%
D11*
%TO.C,SW24*%
X85050000Y-78412500D03*
D12*
X79970000Y-78412500D03*
X90130000Y-78412500D03*
D13*
X81240000Y-75872500D03*
X87590000Y-73332500D03*
%TD*%
D12*
%TO.C,SW92*%
X47267500Y-154612500D03*
D11*
X42187500Y-154612500D03*
D12*
X37107500Y-154612500D03*
D13*
X38377500Y-152072500D03*
X44727500Y-149532500D03*
%TD*%
D10*
%TO.C,S3*%
X256500000Y-123497500D03*
D11*
X232687500Y-108257500D03*
X256500000Y-108257500D03*
D10*
X232687500Y-123497500D03*
%TD*%
D12*
%TO.C,SW32*%
X252055000Y-78412500D03*
D11*
X246975000Y-78412500D03*
D12*
X241895000Y-78412500D03*
D13*
X243165000Y-75872500D03*
X249515000Y-73332500D03*
%TD*%
D12*
%TO.C,SW59*%
X56157500Y-116512500D03*
X66317500Y-116512500D03*
D11*
X61237500Y-116512500D03*
D13*
X57427500Y-113972500D03*
X63777500Y-111432500D03*
%TD*%
D12*
%TO.C,SW6*%
X79970000Y-54600000D03*
X90130000Y-54600000D03*
D11*
X85050000Y-54600000D03*
D13*
X81240000Y-52060000D03*
X87590000Y-49520000D03*
%TD*%
D12*
%TO.C,SW58*%
X47267500Y-116512500D03*
X37107500Y-116512500D03*
D11*
X42187500Y-116512500D03*
D13*
X38377500Y-113972500D03*
X44727500Y-111432500D03*
%TD*%
D11*
%TO.C,SW77*%
X108862500Y-135562500D03*
D12*
X113942500Y-135562500D03*
X103782500Y-135562500D03*
D13*
X105052500Y-133022500D03*
X111402500Y-130482500D03*
%TD*%
D11*
%TO.C,SW103*%
X299362500Y-154612500D03*
D12*
X304442500Y-154612500D03*
X294282500Y-154612500D03*
D13*
X295552500Y-152072500D03*
X301902500Y-149532500D03*
%TD*%
D11*
%TO.C,S6*%
X161250000Y-146357500D03*
D10*
X61237500Y-161597500D03*
X161250000Y-161597500D03*
D11*
X61237500Y-146357500D03*
%TD*%
%TO.C,SW62*%
X118387500Y-116512500D03*
D12*
X113307500Y-116512500D03*
X123467500Y-116512500D03*
D13*
X114577500Y-113972500D03*
X120927500Y-111432500D03*
%TD*%
D12*
%TO.C,SW20*%
X3770000Y-78412500D03*
X13930000Y-78412500D03*
D11*
X8850000Y-78412500D03*
D13*
X5040000Y-75872500D03*
X11390000Y-73332500D03*
%TD*%
D11*
%TO.C,SW44*%
X132675000Y-97462500D03*
D12*
X137755000Y-97462500D03*
X127595000Y-97462500D03*
D13*
X128865000Y-94922500D03*
X135215000Y-92382500D03*
%TD*%
D12*
%TO.C,SW45*%
X146645000Y-97462500D03*
D11*
X151725000Y-97462500D03*
D12*
X156805000Y-97462500D03*
D13*
X147915000Y-94922500D03*
X154265000Y-92382500D03*
%TD*%
D12*
%TO.C,SW4*%
X41870000Y-54600000D03*
X52030000Y-54600000D03*
D11*
X46950000Y-54600000D03*
D13*
X43140000Y-52060000D03*
X49490000Y-49520000D03*
%TD*%
D12*
%TO.C,SW74*%
X56792500Y-135562500D03*
X46632500Y-135562500D03*
D11*
X51712500Y-135562500D03*
D13*
X47902500Y-133022500D03*
X54252500Y-130482500D03*
%TD*%
D12*
%TO.C,SW26*%
X118070000Y-78412500D03*
X128230000Y-78412500D03*
D11*
X123150000Y-78412500D03*
D13*
X119340000Y-75872500D03*
X125690000Y-73332500D03*
%TD*%
D12*
%TO.C,SW89*%
X21073750Y-154612500D03*
X10913750Y-154612500D03*
D11*
X15993750Y-154612500D03*
D13*
X12183750Y-152072500D03*
X18533750Y-149532500D03*
%TD*%
D12*
%TO.C,SW50*%
X246657500Y-97460000D03*
X256817500Y-97460000D03*
D11*
X251737500Y-97460000D03*
D13*
X247927500Y-94920000D03*
X254277500Y-92380000D03*
%TD*%
D12*
%TO.C,SW91*%
X34726250Y-154612500D03*
X44886250Y-154612500D03*
D11*
X39806250Y-154612500D03*
D13*
X35996250Y-152072500D03*
X42346250Y-149532500D03*
%TD*%
D11*
%TO.C,SW13*%
X237450000Y-54600000D03*
D12*
X242530000Y-54600000D03*
X232370000Y-54600000D03*
D13*
X233640000Y-52060000D03*
X239990000Y-49520000D03*
%TD*%
D12*
%TO.C,SW17*%
X323492500Y-54600000D03*
D11*
X318412500Y-54600000D03*
D12*
X313332500Y-54600000D03*
D13*
X314602500Y-52060000D03*
X320952500Y-49520000D03*
%TD*%
D12*
%TO.C,SW85*%
X251420000Y-135562500D03*
D11*
X256500000Y-135562500D03*
D12*
X261580000Y-135562500D03*
D13*
X252690000Y-133022500D03*
X259040000Y-130482500D03*
%TD*%
D12*
%TO.C,SW60*%
X75207500Y-116512500D03*
D11*
X80287500Y-116512500D03*
D12*
X85367500Y-116512500D03*
D13*
X76477500Y-113972500D03*
X82827500Y-111432500D03*
%TD*%
D11*
%TO.C,SW48*%
X208875000Y-97460000D03*
D12*
X213955000Y-97460000D03*
X203795000Y-97460000D03*
D13*
X205065000Y-94920000D03*
X211415000Y-92380000D03*
%TD*%
D11*
%TO.C,SW3*%
X27900000Y-54600000D03*
D12*
X22820000Y-54600000D03*
X32980000Y-54600000D03*
D13*
X24090000Y-52060000D03*
X30440000Y-49520000D03*
%TD*%
D11*
%TO.C,S7*%
X66000000Y-146357500D03*
D10*
X180300000Y-161597500D03*
X66000000Y-161597500D03*
D11*
X180300000Y-146357500D03*
%TD*%
D12*
%TO.C,SW56*%
X2023750Y-116512500D03*
D11*
X-3056250Y-116512500D03*
D12*
X-8136250Y-116512500D03*
D13*
X-6866250Y-113972500D03*
X-516250Y-111432500D03*
%TD*%
D12*
%TO.C,SW93*%
X106163750Y-154612500D03*
D11*
X111243750Y-154612500D03*
D12*
X116323750Y-154612500D03*
D13*
X107433750Y-152072500D03*
X113783750Y-149532500D03*
%TD*%
D11*
%TO.C,SW41*%
X75525000Y-97462500D03*
D12*
X80605000Y-97462500D03*
X70445000Y-97462500D03*
D13*
X71715000Y-94922500D03*
X78065000Y-92382500D03*
%TD*%
D12*
%TO.C,SW98*%
X233005000Y-154612500D03*
X222845000Y-154612500D03*
D11*
X227925000Y-154612500D03*
D13*
X224115000Y-152072500D03*
X230465000Y-149532500D03*
%TD*%
D12*
%TO.C,SW73*%
X37742500Y-135562500D03*
X27582500Y-135562500D03*
D11*
X32662500Y-135562500D03*
D13*
X28852500Y-133022500D03*
X35202500Y-130482500D03*
%TD*%
D11*
%TO.C,SW64*%
X156487500Y-116512500D03*
D12*
X161567500Y-116512500D03*
X151407500Y-116512500D03*
D13*
X152677500Y-113972500D03*
X159027500Y-111432500D03*
%TD*%
D12*
%TO.C,SW54*%
X323492500Y-97462500D03*
X313332500Y-97462500D03*
D11*
X318412500Y-97462500D03*
D13*
X314602500Y-94922500D03*
X320952500Y-92382500D03*
%TD*%
D12*
%TO.C,SW88*%
X-357500Y-154612500D03*
D11*
X-5437500Y-154612500D03*
D12*
X-10517500Y-154612500D03*
D13*
X-9247500Y-152072500D03*
X-2897500Y-149532500D03*
%TD*%
D12*
%TO.C,SW78*%
X132992500Y-135562500D03*
D11*
X127912500Y-135562500D03*
D12*
X122832500Y-135562500D03*
D13*
X124102500Y-133022500D03*
X130452500Y-130482500D03*
%TD*%
D11*
%TO.C,SW23*%
X66000000Y-78412500D03*
D12*
X60920000Y-78412500D03*
X71080000Y-78412500D03*
D13*
X62190000Y-75872500D03*
X68540000Y-73332500D03*
%TD*%
D11*
%TO.C,SW39*%
X37425000Y-97462500D03*
D12*
X32345000Y-97462500D03*
X42505000Y-97462500D03*
D13*
X33615000Y-94922500D03*
X39965000Y-92382500D03*
%TD*%
D11*
%TO.C,SW10*%
X170775000Y-54600000D03*
D12*
X165695000Y-54600000D03*
X175855000Y-54600000D03*
D13*
X166965000Y-52060000D03*
X173315000Y-49520000D03*
%TD*%
D11*
%TO.C,SW22*%
X46950000Y-78412500D03*
D12*
X41870000Y-78412500D03*
X52030000Y-78412500D03*
D13*
X43140000Y-75872500D03*
X49490000Y-73332500D03*
%TD*%
D12*
%TO.C,SW70*%
X-2738750Y-135562500D03*
D11*
X-7818750Y-135562500D03*
D12*
X-12898750Y-135562500D03*
D13*
X-11628750Y-133022500D03*
X-5278750Y-130482500D03*
%TD*%
D12*
%TO.C,SW99*%
X225226250Y-154612500D03*
D11*
X230306250Y-154612500D03*
D12*
X235386250Y-154612500D03*
D13*
X226496250Y-152072500D03*
X232846250Y-149532500D03*
%TD*%
D10*
%TO.C,S4*%
X13612500Y-128577500D03*
D11*
X-10200000Y-143817500D03*
D10*
X-10200000Y-128577500D03*
D11*
X13612500Y-143817500D03*
%TD*%
%TO.C,SW96*%
X204112500Y-154612500D03*
D12*
X209192500Y-154612500D03*
X199032500Y-154612500D03*
D13*
X200302500Y-152072500D03*
X206652500Y-149532500D03*
%TD*%
D11*
%TO.C,SW7*%
X113625000Y-54600000D03*
D12*
X108545000Y-54600000D03*
X118705000Y-54600000D03*
D13*
X109815000Y-52060000D03*
X116165000Y-49520000D03*
%TD*%
D11*
%TO.C,SW25*%
X104100000Y-78412500D03*
D12*
X99020000Y-78412500D03*
X109180000Y-78412500D03*
D13*
X100290000Y-75872500D03*
X106640000Y-73332500D03*
%TD*%
D12*
%TO.C,SW37*%
X-10517500Y-97462500D03*
X-357500Y-97462500D03*
D11*
X-5437500Y-97462500D03*
D13*
X-9247500Y-94922500D03*
X-2897500Y-92382500D03*
%TD*%
D12*
%TO.C,SW35*%
X304442500Y-78412500D03*
D11*
X299362500Y-78412500D03*
D12*
X294282500Y-78412500D03*
D13*
X295552500Y-75872500D03*
X301902500Y-73332500D03*
%TD*%
D12*
%TO.C,SW86*%
X294282500Y-135562500D03*
D11*
X299362500Y-135562500D03*
D12*
X304442500Y-135562500D03*
D13*
X295552500Y-133022500D03*
X301902500Y-130482500D03*
%TD*%
D11*
%TO.C,SW12*%
X218400000Y-54600000D03*
D12*
X223480000Y-54600000D03*
X213320000Y-54600000D03*
D13*
X214590000Y-52060000D03*
X220940000Y-49520000D03*
%TD*%
D12*
%TO.C,SW55*%
X-12898750Y-116512500D03*
D11*
X-7818750Y-116512500D03*
D12*
X-2738750Y-116512500D03*
D13*
X-11628750Y-113972500D03*
X-5278750Y-111432500D03*
%TD*%
D11*
%TO.C,SW11*%
X199380000Y-54600000D03*
D12*
X194300000Y-54600000D03*
X204460000Y-54600000D03*
D13*
X195570000Y-52060000D03*
X201920000Y-49520000D03*
%TD*%
D11*
%TO.C,SW66*%
X194587500Y-116512500D03*
D12*
X199667500Y-116512500D03*
X189507500Y-116512500D03*
D13*
X190777500Y-113972500D03*
X197127500Y-111432500D03*
%TD*%
D12*
%TO.C,SW29*%
X175220000Y-78412500D03*
D11*
X180300000Y-78412500D03*
D12*
X185380000Y-78412500D03*
D13*
X176490000Y-75872500D03*
X182840000Y-73332500D03*
%TD*%
D12*
%TO.C,SW14*%
X261580000Y-54600000D03*
D11*
X256500000Y-54600000D03*
D12*
X251420000Y-54600000D03*
D13*
X252690000Y-52060000D03*
X259040000Y-49520000D03*
%TD*%
D12*
%TO.C,SW72*%
X8532500Y-135562500D03*
X18692500Y-135562500D03*
D11*
X13612500Y-135562500D03*
D13*
X9802500Y-133022500D03*
X16152500Y-130482500D03*
%TD*%
D10*
%TO.C,S2*%
X261103750Y-95081250D03*
D11*
X245863750Y-118893750D03*
D10*
X261103750Y-118893750D03*
D11*
X245863750Y-95081250D03*
%TD*%
D12*
%TO.C,SW18*%
X261580000Y-78412500D03*
X251420000Y-78412500D03*
D11*
X256500000Y-78412500D03*
D13*
X252690000Y-75872500D03*
X259040000Y-73332500D03*
%TD*%
D12*
%TO.C,SW94*%
X128230000Y-154612500D03*
X118070000Y-154612500D03*
D11*
X123150000Y-154612500D03*
D13*
X119340000Y-152072500D03*
X125690000Y-149532500D03*
%TD*%
D12*
%TO.C,SW63*%
X142517500Y-116512500D03*
D11*
X137437500Y-116512500D03*
D12*
X132357500Y-116512500D03*
D13*
X133627500Y-113972500D03*
X139977500Y-111432500D03*
%TD*%
D11*
%TO.C,SW19*%
X-10175000Y-78412500D03*
D12*
X-5095000Y-78412500D03*
X-15255000Y-78412500D03*
D13*
X-13985000Y-75872500D03*
X-7635000Y-73332500D03*
%TD*%
D11*
%TO.C,SW81*%
X185062500Y-135562500D03*
D12*
X179982500Y-135562500D03*
X190142500Y-135562500D03*
D13*
X181252500Y-133022500D03*
X187602500Y-130482500D03*
%TD*%
D14*
%TO.C,C17*%
X265241200Y-109570000D03*
X265241200Y-108610000D03*
%TD*%
D15*
%TO.C,D75*%
X188235000Y-138172500D03*
X188235000Y-134872500D03*
%TD*%
D16*
%TO.C,LED7*%
X325360000Y-107195000D03*
X326460000Y-107195000D03*
X326460000Y-109025000D03*
X325360000Y-109025000D03*
%TD*%
D17*
%TO.C,R7*%
X269262500Y-123422500D03*
X269262500Y-122402500D03*
%TD*%
D15*
%TO.C,D31*%
X229510000Y-81022500D03*
X229510000Y-77722500D03*
%TD*%
D18*
%TO.C,C31*%
X110930000Y-47980000D03*
X111890000Y-47980000D03*
%TD*%
D16*
%TO.C,LED6*%
X325360000Y-133392500D03*
X326460000Y-133392500D03*
X326460000Y-135222500D03*
X325360000Y-135222500D03*
%TD*%
D19*
%TO.C,LED27*%
X-17045000Y-109025000D03*
X-18145000Y-109025000D03*
X-18145000Y-107195000D03*
X-17045000Y-107195000D03*
%TD*%
D20*
%TO.C,U4*%
X274559250Y-114575000D03*
X274559250Y-114975000D03*
X274559250Y-115375000D03*
X274559250Y-115775000D03*
X274559250Y-116175000D03*
X274559250Y-116575000D03*
X274559250Y-116975000D03*
X274559250Y-117375000D03*
X274559250Y-117775000D03*
X274559250Y-118175000D03*
X274559250Y-118575000D03*
X274559250Y-118975000D03*
X274559250Y-119375000D03*
X274559250Y-119775000D03*
D21*
X273721750Y-120612500D03*
X273321750Y-120612500D03*
X272921750Y-120612500D03*
X272521750Y-120612500D03*
X272121750Y-120612500D03*
X271721750Y-120612500D03*
X271321750Y-120612500D03*
X270921750Y-120612500D03*
X270521750Y-120612500D03*
X270121750Y-120612500D03*
X269721750Y-120612500D03*
X269321750Y-120612500D03*
X268921750Y-120612500D03*
X268521750Y-120612500D03*
D20*
X267684250Y-119775000D03*
X267684250Y-119375000D03*
X267684250Y-118975000D03*
X267684250Y-118575000D03*
X267684250Y-118175000D03*
X267684250Y-117775000D03*
X267684250Y-117375000D03*
X267684250Y-116975000D03*
X267684250Y-116575000D03*
X267684250Y-116175000D03*
X267684250Y-115775000D03*
X267684250Y-115375000D03*
X267684250Y-114975000D03*
X267684250Y-114575000D03*
D21*
X268521750Y-113737500D03*
X268921750Y-113737500D03*
X269321750Y-113737500D03*
X269721750Y-113737500D03*
X270121750Y-113737500D03*
X270521750Y-113737500D03*
X270921750Y-113737500D03*
X271321750Y-113737500D03*
X271721750Y-113737500D03*
X272121750Y-113737500D03*
X272521750Y-113737500D03*
X272921750Y-113737500D03*
X273321750Y-113737500D03*
X273721750Y-113737500D03*
D22*
X271121750Y-117175000D03*
%TD*%
D15*
%TO.C,D61*%
X178710000Y-119060000D03*
X178710000Y-115760000D03*
%TD*%
%TO.C,D27*%
X164422500Y-81022500D03*
X164422500Y-77722500D03*
%TD*%
D23*
%TO.C,R1*%
X265824000Y-49322000D03*
X265824000Y-50342000D03*
%TD*%
D15*
%TO.C,D17*%
X259672500Y-81022500D03*
X259672500Y-77722500D03*
%TD*%
%TO.C,D14*%
X283485000Y-57210000D03*
X283485000Y-53910000D03*
%TD*%
%TO.C,D79*%
X302535000Y-138172500D03*
X302535000Y-134872500D03*
%TD*%
%TO.C,D25*%
X126322500Y-81022500D03*
X126322500Y-77722500D03*
%TD*%
%TO.C,D62*%
X197760000Y-119060000D03*
X197760000Y-115760000D03*
%TD*%
D24*
%TO.C,LED23*%
X102078214Y-162145000D03*
X102078214Y-163245000D03*
X100248214Y-163245000D03*
X100248214Y-162145000D03*
%TD*%
D18*
%TO.C,C22*%
X309462500Y-122382500D03*
X310422500Y-122382500D03*
%TD*%
D25*
%TO.C,C24*%
X324210000Y-108062500D03*
X324210000Y-109022500D03*
%TD*%
D26*
%TO.C,LED2*%
X292382500Y-119765000D03*
X293882500Y-119765000D03*
X292382500Y-114315000D03*
D27*
X293882500Y-114315000D03*
%TD*%
D15*
%TO.C,D4*%
X69172500Y-57210000D03*
X69172500Y-53910000D03*
%TD*%
D28*
%TO.C,U3*%
X284329129Y-106415000D03*
X284329129Y-107685000D03*
X284329129Y-108955000D03*
X284329129Y-110225000D03*
X277129129Y-110225000D03*
X277129129Y-108955000D03*
X277129129Y-107685000D03*
X277129129Y-106415000D03*
%TD*%
D29*
%TO.C,LED16*%
X25955000Y-46870000D03*
X25955000Y-45770000D03*
X27785000Y-45770000D03*
X27785000Y-46870000D03*
%TD*%
D24*
%TO.C,LED31*%
X243199642Y-162145000D03*
X243199642Y-163245000D03*
X241369642Y-163245000D03*
X241369642Y-162145000D03*
%TD*%
D25*
%TO.C,C7*%
X269322500Y-126062500D03*
X269322500Y-127022500D03*
%TD*%
D15*
%TO.C,D9*%
X173947500Y-57210000D03*
X173947500Y-53910000D03*
%TD*%
D25*
%TO.C,C26*%
X324222500Y-56182500D03*
X324222500Y-57142500D03*
%TD*%
D15*
%TO.C,D59*%
X140610000Y-119060000D03*
X140610000Y-115760000D03*
%TD*%
D25*
%TO.C,C13*%
X264235000Y-118422500D03*
X264235000Y-119382500D03*
%TD*%
%TO.C,C35*%
X4102500Y-53342500D03*
X4102500Y-54302500D03*
%TD*%
D15*
%TO.C,D45*%
X192997500Y-100072500D03*
X192997500Y-96772500D03*
%TD*%
D16*
%TO.C,LED13*%
X325360000Y-55302500D03*
X326460000Y-55302500D03*
X326460000Y-57132500D03*
X325360000Y-57132500D03*
%TD*%
D30*
%TO.C,Y1*%
X272228000Y-125001250D03*
X274428000Y-125001250D03*
X274428000Y-126701250D03*
X272228000Y-126701250D03*
%TD*%
D15*
%TO.C,D3*%
X50122500Y-57210000D03*
X50122500Y-53910000D03*
%TD*%
%TO.C,D66*%
X20753750Y-138172500D03*
X20753750Y-134872500D03*
%TD*%
%TO.C,D28*%
X183472500Y-81022500D03*
X183472500Y-77722500D03*
%TD*%
D31*
%TO.C,C10*%
X266212000Y-113841250D03*
X265252000Y-113841250D03*
%TD*%
D15*
%TO.C,D65*%
X4878750Y-138172500D03*
X4878750Y-134872500D03*
%TD*%
D24*
%TO.C,LED32*%
X278480000Y-162140000D03*
X278480000Y-163240000D03*
X276650000Y-163240000D03*
X276650000Y-162140000D03*
%TD*%
D15*
%TO.C,D68*%
X54885000Y-138172500D03*
X54885000Y-134872500D03*
%TD*%
%TO.C,D63*%
X216810000Y-119060000D03*
X216810000Y-115760000D03*
%TD*%
D32*
%TO.C,U5*%
X281322500Y-116212500D03*
X281322500Y-115262500D03*
X281322500Y-114312500D03*
X283597500Y-114312500D03*
X283597500Y-116212500D03*
%TD*%
D18*
%TO.C,C3*%
X263690000Y-59102500D03*
X264650000Y-59102500D03*
%TD*%
D15*
%TO.C,D47*%
X231097500Y-100072500D03*
X231097500Y-96772500D03*
%TD*%
%TO.C,D46*%
X212047500Y-100072500D03*
X212047500Y-96772500D03*
%TD*%
D26*
%TO.C,LED1*%
X286910000Y-119765000D03*
X288410000Y-119765000D03*
X286910000Y-114315000D03*
D27*
X288410000Y-114315000D03*
%TD*%
D15*
%TO.C,D73*%
X150135000Y-138172500D03*
X150135000Y-134872500D03*
%TD*%
%TO.C,D40*%
X97747500Y-100072500D03*
X97747500Y-96772500D03*
%TD*%
D14*
%TO.C,C8*%
X266308000Y-109570000D03*
X266308000Y-108610000D03*
%TD*%
D15*
%TO.C,D88*%
X283485000Y-157222500D03*
X283485000Y-153922500D03*
%TD*%
D31*
%TO.C,C49*%
X278540000Y-161000000D03*
X277580000Y-161000000D03*
%TD*%
D25*
%TO.C,C34*%
X4072500Y-47372500D03*
X4072500Y-48332500D03*
%TD*%
D29*
%TO.C,LED10*%
X204700000Y-46855000D03*
X204700000Y-45755000D03*
X206530000Y-45755000D03*
X206530000Y-46855000D03*
%TD*%
D15*
%TO.C,D33*%
X302535000Y-80960000D03*
X302535000Y-77660000D03*
%TD*%
%TO.C,D60*%
X159660000Y-119060000D03*
X159660000Y-115760000D03*
%TD*%
%TO.C,D53*%
X26310000Y-119122500D03*
X26310000Y-115822500D03*
%TD*%
D31*
%TO.C,C44*%
X102200000Y-161000000D03*
X101240000Y-161000000D03*
%TD*%
D25*
%TO.C,C25*%
X324210000Y-82130000D03*
X324210000Y-83090000D03*
%TD*%
D18*
%TO.C,C1*%
X275872500Y-113582500D03*
X276832500Y-113582500D03*
%TD*%
D24*
%TO.C,LED24*%
X72540000Y-162145000D03*
X72540000Y-163245000D03*
X70710000Y-163245000D03*
X70710000Y-162145000D03*
%TD*%
D15*
%TO.C,D55*%
X64410000Y-119122500D03*
X64410000Y-115822500D03*
%TD*%
D14*
%TO.C,C6*%
X271568000Y-109570000D03*
X271568000Y-108610000D03*
%TD*%
D15*
%TO.C,D90*%
X321585000Y-157222500D03*
X321585000Y-153922500D03*
%TD*%
D31*
%TO.C,C46*%
X172720000Y-161000000D03*
X171760000Y-161000000D03*
%TD*%
D15*
%TO.C,D13*%
X259672500Y-57210000D03*
X259672500Y-53910000D03*
%TD*%
D25*
%TO.C,C23*%
X324132500Y-133382500D03*
X324132500Y-134342500D03*
%TD*%
D31*
%TO.C,C2*%
X264650000Y-53560000D03*
X263690000Y-53560000D03*
%TD*%
D15*
%TO.C,D78*%
X259672500Y-138172500D03*
X259672500Y-134872500D03*
%TD*%
%TO.C,D8*%
X154897500Y-57210000D03*
X154897500Y-53910000D03*
%TD*%
%TO.C,D26*%
X145372500Y-81022500D03*
X145372500Y-77722500D03*
%TD*%
D19*
%TO.C,LED26*%
X-17110000Y-135225000D03*
X-18210000Y-135225000D03*
X-18210000Y-133395000D03*
X-17110000Y-133395000D03*
%TD*%
%TO.C,LED28*%
X-17045000Y-83005000D03*
X-18145000Y-83005000D03*
X-18145000Y-81175000D03*
X-17045000Y-81175000D03*
%TD*%
D15*
%TO.C,D64*%
X224747500Y-119122500D03*
X224747500Y-115822500D03*
%TD*%
%TO.C,D84*%
X185853750Y-157222500D03*
X185853750Y-153922500D03*
%TD*%
D31*
%TO.C,C48*%
X243260000Y-160990000D03*
X242300000Y-160990000D03*
%TD*%
D15*
%TO.C,D35*%
X-2265000Y-100072500D03*
X-2265000Y-96772500D03*
%TD*%
%TO.C,D1*%
X-7027500Y-57210000D03*
X-7027500Y-53910000D03*
%TD*%
D18*
%TO.C,C30*%
X159360000Y-48000000D03*
X160320000Y-48000000D03*
%TD*%
%TO.C,C20*%
X298002500Y-122332500D03*
X298962500Y-122332500D03*
%TD*%
D33*
%TO.C,SW1*%
X308685000Y-105590000D03*
X314885000Y-105590000D03*
X308685000Y-109290000D03*
X314885000Y-109290000D03*
%TD*%
D29*
%TO.C,LED20*%
X-14090000Y-46870000D03*
X-14090000Y-45770000D03*
X-12260000Y-45770000D03*
X-12260000Y-46870000D03*
%TD*%
D34*
%TO.C,LED17*%
X6005000Y-47360000D03*
X6005000Y-48860000D03*
X11455000Y-47360000D03*
D35*
X11455000Y-48860000D03*
%TD*%
D15*
%TO.C,D19*%
X12022500Y-81022500D03*
X12022500Y-77722500D03*
%TD*%
D17*
%TO.C,R6*%
X267960000Y-109607500D03*
X267960000Y-108587500D03*
%TD*%
D15*
%TO.C,D39*%
X78697500Y-100072500D03*
X78697500Y-96772500D03*
%TD*%
D26*
%TO.C,LED4*%
X303780000Y-119765000D03*
X305280000Y-119765000D03*
X303780000Y-114315000D03*
D27*
X305280000Y-114315000D03*
%TD*%
D15*
%TO.C,D52*%
X116250Y-119122500D03*
X116250Y-115822500D03*
%TD*%
D18*
%TO.C,C27*%
X297415000Y-47990000D03*
X298375000Y-47990000D03*
%TD*%
D15*
%TO.C,D7*%
X135847500Y-57210000D03*
X135847500Y-53910000D03*
%TD*%
D18*
%TO.C,C19*%
X292402500Y-122352500D03*
X293362500Y-122352500D03*
%TD*%
D15*
%TO.C,D80*%
X2497500Y-157222500D03*
X2497500Y-153922500D03*
%TD*%
D23*
%TO.C,R4*%
X288339129Y-108570000D03*
X288339129Y-109590000D03*
%TD*%
D15*
%TO.C,D72*%
X131062500Y-138192500D03*
X131062500Y-134892500D03*
%TD*%
%TO.C,D83*%
X126322500Y-157222500D03*
X126322500Y-153922500D03*
%TD*%
D24*
%TO.C,LED29*%
X172638928Y-162145000D03*
X172638928Y-163245000D03*
X170808928Y-163245000D03*
X170808928Y-162145000D03*
%TD*%
D15*
%TO.C,D57*%
X102510000Y-119060000D03*
X102510000Y-115760000D03*
%TD*%
%TO.C,D10*%
X202522500Y-57210000D03*
X202522500Y-53910000D03*
%TD*%
%TO.C,D22*%
X69172500Y-81022500D03*
X69172500Y-77722500D03*
%TD*%
%TO.C,D70*%
X92985000Y-138172500D03*
X92985000Y-134872500D03*
%TD*%
%TO.C,D20*%
X31072500Y-81022500D03*
X31072500Y-77722500D03*
%TD*%
%TO.C,D29*%
X202522500Y-81022500D03*
X202522500Y-77722500D03*
%TD*%
D25*
%TO.C,C12*%
X268152500Y-126052500D03*
X268152500Y-127012500D03*
%TD*%
D15*
%TO.C,D41*%
X116797500Y-100135000D03*
X116797500Y-96835000D03*
%TD*%
D36*
%TO.C,F1*%
X263411000Y-50082000D03*
X263411000Y-51052000D03*
%TD*%
D34*
%TO.C,LED19*%
X6005000Y-59347500D03*
X6005000Y-60847500D03*
X11455000Y-59347500D03*
D35*
X11455000Y-60847500D03*
%TD*%
D25*
%TO.C,C36*%
X4162500Y-59352500D03*
X4162500Y-60312500D03*
%TD*%
D15*
%TO.C,D54*%
X45360000Y-119122500D03*
X45360000Y-115822500D03*
%TD*%
%TO.C,D50*%
X302535000Y-100072500D03*
X302535000Y-96772500D03*
%TD*%
D31*
%TO.C,C14*%
X266212000Y-112571250D03*
X265252000Y-112571250D03*
%TD*%
D24*
%TO.C,LED30*%
X207919285Y-162145000D03*
X207919285Y-163245000D03*
X206089285Y-163245000D03*
X206089285Y-162145000D03*
%TD*%
D15*
%TO.C,D11*%
X221572500Y-57210000D03*
X221572500Y-53910000D03*
%TD*%
D17*
%TO.C,R5*%
X269244150Y-109600000D03*
X269244150Y-108580000D03*
%TD*%
D29*
%TO.C,LED9*%
X159350000Y-46855000D03*
X159350000Y-45755000D03*
X161180000Y-45755000D03*
X161180000Y-46855000D03*
%TD*%
D24*
%TO.C,LED25*%
X31517500Y-162145000D03*
X31517500Y-163245000D03*
X29687500Y-163245000D03*
X29687500Y-162145000D03*
%TD*%
D15*
%TO.C,D87*%
X259672500Y-157222500D03*
X259672500Y-153922500D03*
%TD*%
%TO.C,D37*%
X40597500Y-100072500D03*
X40597500Y-96772500D03*
%TD*%
D29*
%TO.C,LED8*%
X110950000Y-46855000D03*
X110950000Y-45755000D03*
X112780000Y-45755000D03*
X112780000Y-46855000D03*
%TD*%
D15*
%TO.C,D44*%
X173947500Y-100072500D03*
X173947500Y-96772500D03*
%TD*%
D14*
%TO.C,C4*%
X270458000Y-127041250D03*
X270458000Y-126081250D03*
%TD*%
D18*
%TO.C,C33*%
X25982500Y-48040000D03*
X26942500Y-48040000D03*
%TD*%
D15*
%TO.C,D48*%
X241512500Y-100102500D03*
X241512500Y-96802500D03*
%TD*%
%TO.C,D12*%
X240622500Y-57210000D03*
X240622500Y-53910000D03*
%TD*%
D23*
%TO.C,R3*%
X271285000Y-49324000D03*
X271285000Y-50344000D03*
%TD*%
D31*
%TO.C,C47*%
X207980000Y-161010000D03*
X207020000Y-161010000D03*
%TD*%
D15*
%TO.C,D81*%
X25516250Y-157222500D03*
X25516250Y-153922500D03*
%TD*%
%TO.C,D85*%
X214428750Y-157222500D03*
X214428750Y-153922500D03*
%TD*%
D18*
%TO.C,C32*%
X72590000Y-47990000D03*
X73550000Y-47990000D03*
%TD*%
D15*
%TO.C,D34*%
X321585000Y-81022500D03*
X321585000Y-77722500D03*
%TD*%
%TO.C,D2*%
X31072500Y-57210000D03*
X31072500Y-53910000D03*
%TD*%
D29*
%TO.C,LED11*%
X246070000Y-46860000D03*
X246070000Y-45760000D03*
X247900000Y-45760000D03*
X247900000Y-46860000D03*
%TD*%
D15*
%TO.C,D6*%
X116797500Y-57210000D03*
X116797500Y-53910000D03*
%TD*%
D18*
%TO.C,C21*%
X303782500Y-122332500D03*
X304742500Y-122332500D03*
%TD*%
D15*
%TO.C,D5*%
X88222500Y-57210000D03*
X88222500Y-53910000D03*
%TD*%
D31*
%TO.C,C28*%
X247902500Y-48042500D03*
X246942500Y-48042500D03*
%TD*%
D15*
%TO.C,D23*%
X88222500Y-81022500D03*
X88222500Y-77722500D03*
%TD*%
%TO.C,D67*%
X35835000Y-138172500D03*
X35835000Y-134872500D03*
%TD*%
%TO.C,D71*%
X112035000Y-138172500D03*
X112035000Y-134872500D03*
%TD*%
D24*
%TO.C,LED22*%
X137358571Y-162145000D03*
X137358571Y-163245000D03*
X135528571Y-163245000D03*
X135528571Y-162145000D03*
%TD*%
D15*
%TO.C,D15*%
X302535000Y-57210000D03*
X302535000Y-53910000D03*
%TD*%
D31*
%TO.C,C42*%
X31600000Y-160960000D03*
X30640000Y-160960000D03*
%TD*%
D15*
%TO.C,D32*%
X283485000Y-81022500D03*
X283485000Y-77722500D03*
%TD*%
D14*
%TO.C,C38*%
X-15827500Y-57112500D03*
X-15827500Y-56152500D03*
%TD*%
D37*
%TO.C,U2*%
X269761250Y-50533000D03*
X269761250Y-51483000D03*
X269836250Y-52433000D03*
X267411250Y-52433000D03*
X267411250Y-51483000D03*
X267411250Y-50533000D03*
%TD*%
D15*
%TO.C,D51*%
X321585000Y-100072500D03*
X321585000Y-96772500D03*
%TD*%
D25*
%TO.C,C5*%
X276303000Y-126071250D03*
X276303000Y-127031250D03*
%TD*%
D19*
%TO.C,LED21*%
X-17120000Y-57125000D03*
X-18220000Y-57125000D03*
X-18220000Y-55295000D03*
X-17120000Y-55295000D03*
%TD*%
D26*
%TO.C,LED5*%
X309440000Y-119765000D03*
X310940000Y-119765000D03*
X309440000Y-114315000D03*
D27*
X310940000Y-114315000D03*
%TD*%
D15*
%TO.C,D69*%
X73935000Y-138172500D03*
X73935000Y-134872500D03*
%TD*%
D34*
%TO.C,LED18*%
X6005000Y-53350000D03*
X6005000Y-54850000D03*
X11455000Y-53350000D03*
D35*
X11455000Y-54850000D03*
%TD*%
D15*
%TO.C,D21*%
X50122500Y-81022500D03*
X50122500Y-77722500D03*
%TD*%
%TO.C,D30*%
X221572500Y-81022500D03*
X221572500Y-77722500D03*
%TD*%
%TO.C,D77*%
X222366250Y-138172500D03*
X222366250Y-134872500D03*
%TD*%
%TO.C,D89*%
X302535000Y-157222500D03*
X302535000Y-153922500D03*
%TD*%
D29*
%TO.C,LED12*%
X296560000Y-46860000D03*
X296560000Y-45760000D03*
X298390000Y-45760000D03*
X298390000Y-46860000D03*
%TD*%
D38*
%TO.C,U1*%
X265600000Y-57140000D03*
X263700000Y-57140000D03*
X264650000Y-55265000D03*
%TD*%
D14*
%TO.C,C39*%
X-15797500Y-83070000D03*
X-15797500Y-82110000D03*
%TD*%
D18*
%TO.C,C11*%
X286949129Y-106600000D03*
X287909129Y-106600000D03*
%TD*%
D15*
%TO.C,D74*%
X169185000Y-138172500D03*
X169185000Y-134872500D03*
%TD*%
%TO.C,D38*%
X59647500Y-100072500D03*
X59647500Y-96772500D03*
%TD*%
D18*
%TO.C,C9*%
X263670000Y-60520000D03*
X264630000Y-60520000D03*
%TD*%
D15*
%TO.C,D43*%
X154897500Y-100072500D03*
X154897500Y-96772500D03*
%TD*%
%TO.C,D18*%
X-7027500Y-81022500D03*
X-7027500Y-77722500D03*
%TD*%
D29*
%TO.C,LED15*%
X72630000Y-46855000D03*
X72630000Y-45755000D03*
X74460000Y-45755000D03*
X74460000Y-46855000D03*
%TD*%
D15*
%TO.C,D42*%
X135847500Y-100135000D03*
X135847500Y-96835000D03*
%TD*%
%TO.C,D58*%
X121560000Y-119060000D03*
X121560000Y-115760000D03*
%TD*%
D18*
%TO.C,C29*%
X204692500Y-48042500D03*
X205652500Y-48042500D03*
%TD*%
D25*
%TO.C,C41*%
X-15837500Y-134300000D03*
X-15837500Y-135260000D03*
%TD*%
D31*
%TO.C,C45*%
X137460000Y-161000000D03*
X136500000Y-161000000D03*
%TD*%
D15*
%TO.C,D16*%
X321585000Y-57210000D03*
X321585000Y-53910000D03*
%TD*%
D18*
%TO.C,C37*%
X-14097500Y-48020000D03*
X-13137500Y-48020000D03*
%TD*%
D31*
%TO.C,C43*%
X72700000Y-160960000D03*
X71740000Y-160960000D03*
%TD*%
D15*
%TO.C,D36*%
X21547500Y-100072500D03*
X21547500Y-96772500D03*
%TD*%
%TO.C,D86*%
X238241250Y-157222500D03*
X238241250Y-153922500D03*
%TD*%
D16*
%TO.C,LED14*%
X325360000Y-81175000D03*
X326460000Y-81175000D03*
X326460000Y-83005000D03*
X325360000Y-83005000D03*
%TD*%
D14*
%TO.C,C40*%
X-15767500Y-108980000D03*
X-15767500Y-108020000D03*
%TD*%
D15*
%TO.C,D49*%
X283485000Y-100072500D03*
X283485000Y-96772500D03*
%TD*%
%TO.C,D82*%
X50122500Y-157222500D03*
X50122500Y-153922500D03*
%TD*%
D18*
%TO.C,C18*%
X286902500Y-122402500D03*
X287862500Y-122402500D03*
%TD*%
D15*
%TO.C,D76*%
X207285000Y-138172500D03*
X207285000Y-134872500D03*
%TD*%
D14*
%TO.C,C15*%
X270552000Y-109570000D03*
X270552000Y-108610000D03*
%TD*%
D15*
%TO.C,D24*%
X107272500Y-81022500D03*
X107272500Y-77722500D03*
%TD*%
D17*
%TO.C,R2*%
X287067504Y-109586250D03*
X287067504Y-108566250D03*
%TD*%
D15*
%TO.C,D56*%
X83460000Y-119060000D03*
X83460000Y-115760000D03*
%TD*%
D18*
%TO.C,C16*%
X275953750Y-118144375D03*
X276913750Y-118144375D03*
%TD*%
D39*
%TO.C,J1*%
X265696250Y-45637500D03*
X271476250Y-45637500D03*
D40*
X265336250Y-47082500D03*
X266136250Y-47082500D03*
D41*
X267336250Y-47082500D03*
X268336250Y-47082500D03*
X268836250Y-47082500D03*
X269836250Y-47082500D03*
D40*
X271036250Y-47082500D03*
X271836250Y-47082500D03*
X271836250Y-47082500D03*
X271036250Y-47082500D03*
D41*
X270336250Y-47082500D03*
X269336250Y-47082500D03*
X267836250Y-47082500D03*
X266836250Y-47082500D03*
D40*
X266136250Y-47082500D03*
X265336250Y-47082500D03*
D42*
X272906250Y-41987500D03*
X264266250Y-41987500D03*
D43*
X272906250Y-46167500D03*
X264266250Y-46167500D03*
%TD*%
D26*
%TO.C,LED3*%
X298030000Y-119765000D03*
X299530000Y-119765000D03*
X298030000Y-114315000D03*
D27*
X299530000Y-114315000D03*
%TD*%
M02*
