M48
; DRILL file {KiCad (6.0.5)} date Sun Jul  3 11:08:47 2022
; FORMAT={-:-/ absolute / inch / decimal}
; #@! TF.CreationDate,2022-07-03T11:08:47+08:00
; #@! TF.GenerationSoftware,Kicad,Pcbnew,(6.0.5)
; #@! TF.FileFunction,Plated,1,2,PTH
FMAT,2
INCH
; #@! TA.AperFunction,Plated,PTH,ViaDrill
T1C0.0138
; #@! TA.AperFunction,Plated,PTH,ComponentDrill
T2C0.0138
; #@! TA.AperFunction,Plated,PTH,ViaDrill
T3C0.0157
; #@! TA.AperFunction,Plated,PTH,ViaDrill
T4C0.0197
; #@! TA.AperFunction,Plated,PTH,ComponentDrill
T5C0.0236
; #@! TA.AperFunction,Plated,PTH,ComponentDrill
T6C0.0600
%
G90
G05
T1
X0.2363Y-2.2248
X0.4513Y-2.2875
X10.3631Y-1.7627
X10.5639Y-4.4183
X10.6001Y-4.7017
X10.6009Y-4.919
X10.6501Y-4.8525
X10.7218Y-4.527
X10.7524Y-4.6847
X10.7828Y-1.7607
T2
X10.6239Y-4.563
X10.6239Y-4.6132
X10.6239Y-4.6634
X10.6741Y-4.563
X10.6741Y-4.6132
X10.6741Y-4.6634
X10.7243Y-4.563
X10.7243Y-4.6132
X10.7243Y-4.6634
T3
X10.3955Y-1.9119
X10.4255Y-1.9919
X10.7552Y-1.9064
T4
X-0.6739Y-2.1269
X-0.4723Y-1.943
X-0.4637Y-1.8922
X-0.3889Y-1.9406
X-0.3707Y-2.0233
X-0.3633Y-1.8233
X0.0395Y-1.8635
X0.0395Y-2.3371
X0.1155Y-2.3765
X0.1611Y-1.9462
X0.1615Y-2.184
X0.469Y-1.8076
X0.517Y-1.9229
X0.5186Y-2.1603
X0.5221Y-2.3938
X0.5611Y-1.8446
X1.1198Y-6.3812
X1.1493Y-1.841
X1.2258Y-2.5879
X1.3576Y-1.9375
X1.5056Y-4.2556
X2.2371Y-4.2556
X2.2887Y-6.3969
X2.7351Y-6.3832
X2.9579Y-1.8832
X3.1403Y-4.2529
X3.1585Y-5.9497
X3.8966Y-6.3832
X3.9198Y-4.2556
X4.4611Y-1.8883
X4.5135Y-6.0336
X4.6796Y-4.2584
X5.2855Y-6.384
X5.4048Y-4.2647
X5.8518Y-6.3934
X6.0473Y-4.2611
X6.3781Y-1.8891
X6.6745Y-6.3812
X6.8127Y-4.2611
X6.9844Y-6.4029
X7.5359Y-4.2611
X8.0643Y-6.384
X8.1615Y-1.891
X8.5721Y-5.9733
X8.9942Y-1.954
X9.4009Y-5.6718
X9.4521Y-6.3844
X9.4674Y-5.8993
X9.8766Y-4.7013
X10.1014Y-4.7001
X10.1954Y-4.0859
X10.275Y-4.8611
X10.2954Y-3.1899
X10.3009Y-2.2997
X10.3273Y-5.4399
X10.3925Y-4.2752
X10.4018Y-4.7426
X10.4413Y-4.3835
X10.4694Y-2.3836
X10.5044Y-2.1761
X10.5143Y-5.7229
X10.6371Y-2.1753
X10.6489Y-5.0505
X10.6737Y-3.1914
X10.6781Y-2.2989
X10.7433Y-4.2752
X10.7623Y-4.0844
X10.8399Y-6.3824
X10.8466Y-5.4399
X10.9265Y-5.4399
X10.9296Y-4.4344
X10.9352Y-4.7076
X10.9969Y-2.0036
X11.0162Y-1.841
X11.0777Y-5.4399
X11.1205Y-4.3402
X11.1725Y-4.6328
X11.1742Y-4.1123
X11.293Y-5.6422
X11.3131Y-1.9698
X11.3839Y-4.1953
X11.4131Y-2.7139
X11.4131Y-3.4607
X11.4329Y-4.7454
X11.6825Y-4.7387
X11.806Y-1.834
X11.8774Y-4.7454
X12.0049Y-5.2249
X12.082Y-1.9698
X12.1006Y-4.7434
X12.1316Y-5.6627
X12.1639Y-2.7095
X12.1655Y-3.4651
X12.7077Y-4.0359
X12.7403Y-2.0418
X12.8092Y-4.1584
X12.8099Y-3.5021
T6
X-0.5506Y-2.0506
X-0.5506Y-2.9871
X-0.4578Y-4.4871
X-0.4578Y-5.2371
X-0.4578Y-5.9871
X-0.3641Y-3.7371
X-0.3641Y-5.9871
X-0.3006Y-1.9506
X-0.3006Y-2.8871
X-0.2703Y-4.4871
X-0.2078Y-4.3871
X-0.2078Y-5.1371
X-0.2078Y-5.8871
X-0.1141Y-3.6371
X-0.1141Y-5.8871
X-0.0828Y-5.2371
X-0.0203Y-4.3871
X0.1672Y-5.1371
X0.1984Y-2.9871
X0.3859Y-5.2371
X0.4484Y-2.8871
X0.4797Y-5.9871
X0.5734Y-3.7371
X0.5734Y-5.9871
X0.6359Y-5.1371
X0.7297Y-5.8871
X0.7609Y-4.4871
X0.8234Y-3.6371
X0.8234Y-5.8871
X0.9484Y-2.0496
X0.9484Y-2.9871
X1.0109Y-4.3871
X1.1359Y-5.2371
X1.1984Y-1.9496
X1.1984Y-2.8871
X1.3234Y-3.7371
X1.3859Y-5.1371
X1.4172Y-5.9871
X1.5109Y-4.4871
X1.5109Y-5.9871
X1.5734Y-3.6371
X1.6672Y-5.8871
X1.6984Y-2.0496
X1.6984Y-2.9871
X1.7609Y-4.3871
X1.7609Y-5.8871
X1.8859Y-5.2371
X1.9484Y-1.9496
X1.9484Y-2.8871
X2.0734Y-3.7371
X2.1359Y-5.1371
X2.2609Y-4.4871
X2.3234Y-3.6371
X2.4484Y-2.0496
X2.4484Y-2.9871
X2.5109Y-4.3871
X2.6359Y-5.2371
X2.6984Y-1.9496
X2.6984Y-2.8871
X2.8234Y-3.7371
X2.8859Y-5.1371
X3.0109Y-4.4871
X3.0734Y-3.6371
X3.1984Y-2.0496
X3.1984Y-2.9871
X3.2609Y-4.3871
X3.3859Y-5.2371
X3.4484Y-1.9496
X3.4484Y-2.8871
X3.5734Y-3.7371
X3.6359Y-5.1371
X3.7609Y-4.4871
X3.8234Y-3.6371
X3.9484Y-2.9871
X4.0109Y-4.3871
X4.1359Y-5.2371
X4.1984Y-2.8871
X4.2297Y-5.9871
X4.3234Y-2.0496
X4.3234Y-3.7371
X4.3859Y-5.1371
X4.4797Y-5.8871
X4.5109Y-4.4871
X4.5734Y-1.9496
X4.5734Y-3.6371
X4.6984Y-2.9871
X4.6984Y-5.9871
X4.7609Y-4.3871
X4.8859Y-5.2371
X4.9484Y-2.8871
X4.9484Y-5.8871
X5.0734Y-2.0496
X5.0734Y-3.7371
X5.1359Y-5.1371
X5.2609Y-4.4871
X5.3234Y-1.9496
X5.3234Y-3.6371
X5.4484Y-2.9871
X5.5109Y-4.3871
X5.6359Y-5.2371
X5.6984Y-2.8871
X5.8234Y-2.0496
X5.8234Y-3.7371
X5.8859Y-5.1371
X6.0109Y-4.4871
X6.0734Y-1.9496
X6.0734Y-3.6371
X6.1984Y-2.9871
X6.2609Y-4.3871
X6.3859Y-5.2371
X6.4484Y-2.8871
X6.5732Y-3.737
X6.5734Y-2.0496
X6.6359Y-5.1371
X6.7609Y-4.4871
X6.8232Y-3.637
X6.8234Y-1.9496
X6.9484Y-2.9871
X7.0109Y-4.3871
X7.0422Y-5.9871
X7.1359Y-5.2371
X7.1984Y-2.8871
X7.2922Y-5.8871
X7.3234Y-3.737
X7.3859Y-5.1371
X7.5109Y-4.4871
X7.5734Y-3.637
X7.6984Y-2.9871
X7.6996Y-2.0496
X7.7609Y-4.3871
X7.8859Y-5.2371
X7.8859Y-5.9871
X7.9484Y-2.8871
X7.9496Y-1.9496
X7.9797Y-5.9871
X8.0734Y-3.737
X8.1359Y-5.1371
X8.1359Y-5.8871
X8.2297Y-5.8871
X8.2609Y-4.4871
X8.3234Y-3.637
X8.4484Y-2.0496
X8.4484Y-2.9871
X8.5109Y-4.3871
X8.6984Y-1.9496
X8.6984Y-2.8871
X8.8234Y-3.737
X8.8234Y-5.9871
X8.9172Y-5.2371
X8.9172Y-5.9871
X9.0109Y-4.4871
X9.0734Y-3.637
X9.0734Y-5.8871
X9.1672Y-5.1371
X9.1672Y-5.8871
X9.1984Y-2.0496
X9.1984Y-2.9871
X9.2609Y-4.3871
X9.2922Y-5.2371
X9.4484Y-1.9496
X9.4484Y-2.8871
X9.4797Y-4.4871
X9.5422Y-5.1371
X9.5734Y-2.9871
X9.6672Y-5.9871
X9.7297Y-4.3871
X9.7609Y-3.737
X9.7609Y-5.9871
X9.8234Y-2.8871
X9.8547Y-4.1121
X9.9172Y-5.8871
X9.9484Y-2.0496
X9.9484Y-2.9871
X9.9484Y-5.2371
X10.0109Y-3.637
X10.0109Y-5.8871
X10.1047Y-4.0121
X10.1984Y-1.9496
X10.1984Y-2.8871
X10.1984Y-5.1371
X10.8859Y-2.0496
X10.8859Y-2.9871
X10.8859Y-3.7371
X10.8859Y-5.9871
X11.1359Y-1.9496
X11.1359Y-2.8871
X11.1359Y-3.6371
X11.1359Y-5.8871
X11.6359Y-2.0496
X11.6359Y-2.9871
X11.6359Y-3.7371
X11.6359Y-5.2371
X11.6359Y-5.9871
X11.8859Y-1.9496
X11.8859Y-2.8871
X11.8859Y-3.6371
X11.8859Y-5.1371
X11.8859Y-5.8871
X12.3859Y-2.0496
X12.3859Y-2.9871
X12.3859Y-3.7371
X12.3859Y-5.9871
X12.6359Y-1.9496
X12.6359Y-2.8871
X12.6359Y-3.6371
X12.6359Y-5.8871
T5
G00X10.4042Y-1.6412
M15
G01X10.4042Y-1.6649
M16
G05
G00X10.4042Y-1.796
M15
G01X10.4042Y-1.8393
M16
G05
G00X10.7443Y-1.6412
M15
G01X10.7443Y-1.6649
M16
G05
G00X10.7443Y-1.796
M15
G01X10.7443Y-1.8393
M16
G05
T0
M30
